<?xml version="1.0" encoding="UTF-8" standalone="no"?>
<!-- Created with Inkscape (http://www.inkscape.org/) -->

<svg
   width="210.89694mm"
   height="34.424168mm"
   viewBox="0 0 210.89694 34.424168"
   version="1.1"
   id="svg11131"
   sodipodi:docname="massivefold.svg"
   inkscape:version="1.2.2 (b0a8486541, 2022-12-01)"
   xmlns:inkscape="http://www.inkscape.org/namespaces/inkscape"
   xmlns:sodipodi="http://sodipodi.sourceforge.net/DTD/sodipodi-0.dtd"
   xmlns="http://www.w3.org/2000/svg"
   xmlns:svg="http://www.w3.org/2000/svg">
  <sodipodi:namedview
     id="namedview11133"
     pagecolor="#ffffff"
     bordercolor="#000000"
     borderopacity="0.25"
     inkscape:showpageshadow="2"
     inkscape:pageopacity="0.0"
     inkscape:pagecheckerboard="0"
     inkscape:deskcolor="#d1d1d1"
     inkscape:document-units="mm"
     showgrid="false"
     inkscape:zoom="2.889927"
     inkscape:cx="416.10047"
     inkscape:cy="45.502879"
     inkscape:window-width="1920"
     inkscape:window-height="1043"
     inkscape:window-x="0"
     inkscape:window-y="0"
     inkscape:window-maximized="1"
     inkscape:current-layer="layer1" />
  <defs
     id="defs11128" />
  <g
     inkscape:label="Layer 1"
     inkscape:groupmode="layer"
     id="layer1">
    <path
       style="fill:#000000;stroke-width:0.18011"
       d="m 63.797144,28.288857 c 1.44463,-0.53001 3.08153,-2.0309 3.74186,-3.43094 0.84073,-1.78251 0.7822,-4.27826 -0.13877,-5.91742 -0.86065,-1.5318 -1.99428,-2.27012 -4.76765,-3.10517 -4.03341,-1.21442 -5.25112,-2.18527 -5.25112,-4.18653 0,-0.57271 0.12129,-0.9122 0.46123,-1.29102 0.68478,-0.7630696 1.35445,-0.9530196 3.11166,-0.8826096 1.24013,0.0497 1.73273,0.15572 2.51524,0.5413996 0.53519,0.26379 1.09895,0.47961 1.25279,0.47961 0.43115,0 1.95891,-1.9282496 1.95904,-2.4725996 1.6e-4,-0.63593 -0.69461,-1.1113 -2.30818,-1.57929 -1.94506,-0.56413 -5.5064,-0.54825 -7.07538,0.0315 -4.62509,1.70916 -5.38365,7.8301996 -1.28932,10.4039096 0.62596,0.39348 1.79777,0.96635 2.60403,1.27303 4.51234,1.71642 5.33209,2.34575 5.33209,4.09349 0,2.0061 -1.36038,3.07604 -3.90671,3.0726 -1.37104,-0.002 -2.75561,-0.47726 -3.80787,-1.30747 -0.30315,-0.23918 -0.73309,-0.43361 -0.95541,-0.43205 -0.50546,0.004 -2.34828,2.00897 -2.35357,2.56126 -0.006,0.61641 1.97875,1.78251 3.99535,2.3475 1.67394,0.46899 5.34944,0.36255 6.88069,-0.19925 z m 41.607406,-3.57871 c 2.00699,-3.70372 6.82706,-13.21461 8.42623,-16.6264996 0.37464,-0.79931 0.63565,-1.56451 0.58002,-1.70044 -0.078,-0.19047 -0.52799,-0.24714 -1.9627,-0.24714 -1.77928,0 -1.875,0.0192 -2.16555,0.43501 -0.16719,0.23926 -1.83259,3.6171796 -3.70088,7.5064896 -1.8683,3.88932 -3.4472,7.11864 -3.50867,7.17627 -0.0615,0.0576 -0.28599,-0.2791 -0.49893,-0.74831 -1.73456,-3.82193 -6.452656,-13.6144296 -6.694406,-13.8943596 -0.57576,-0.6667 -3.91466,-0.80112 -4.17376,-0.16804 -0.10554,0.25789 0.74888,2.11123 4.72281,10.2444196 0.93737,1.91845 2.55207,5.24116 3.588226,7.3838 1.97721,4.08861 2.41047,4.7889 2.90949,4.7027 0.18811,-0.0325 1.13519,-1.58563 2.47812,-4.0639 z m -95.263346,3.39357 c 0.0595,-0.10419 0.10208,-0.48235 0.12813,-1.14532 0.0341,-0.86707 0.0398,-2.22131 0.0179,-4.08696 -0.0315,-2.68188 -0.007,-4.87608 0.0547,-4.876 0.0616,7e-5 1.60274,2.2802 3.42483,5.06694 1.8221,2.78675 3.45511,5.13817 3.62891,5.22538 0.47104,0.23638 0.74349,-0.0404 2.23384,-2.26957 0.73751,-1.10311 2.27236,-3.39129 3.41077,-5.08484 l 2.06985,-2.93791 0.093,4.94356 c 0.0512,2.79666 0.16071,5.18294 0.24348,5.30285 0.1037,0.15023 0.72323,0.218 1.99297,0.218 1.63126,0 1.86458,-0.0387 2.03504,-0.33734 0.0334,-0.0585 0.10671,-0.52505 0.0863,-1.28108 -0.10835,-4.00694 -0.0326,-16.8542296 -3.8e-4,-19.3420296 -0.28956,-1.60754 -1.70868,-0.66235 -1.92784,-0.21939 -0.42447,0.55847 0.063,0.0352 -3.23858,4.7262596 -5.87101,8.34196 -6.56328,9.5645 -6.76443,9.5645 -0.11411,0 -1.26519,-1.62351 -2.60584,-3.57529 0,0 -5.9441894,-9.1733496 -7.3041994,-10.9996296 -0.86611,-1.30275 -1.76595,-0.36106 -1.75692,0.3292 0.0199,2.8875096 -0.005,15.5404896 -0.008,19.6889896 -0.0133,0.5561 0.0383,0.89982 0.0661,0.96609 0.2008199,0.47861 0.20511,0.47961 2.05932,0.47961 1.6804499,0 1.8775399,-0.0341 2.0613494,-0.35613 z m 27.48303,-4.7016 c 1.25745,-2.7338 2.72275,-5.92955 3.25619,-7.10168 0.53344,-1.17214 1.05087,-2.10823 1.14985,-2.08022 0.099,0.028 0.77836,1.49195 1.02184,2.06053 0.24348,0.56858 0.73353,1.54915 1.5769,3.37167 0.84338,1.82253 2.02292,4.44135 2.6212,5.8196 0.59827,1.37825 1.20342,2.61435 1.34476,2.74687 0.18424,0.17275 0.78138,0.24096 2.10955,0.24096 2.20259,0 2.2886,-0.0805 1.64969,-1.54287 -0.32733,-0.74922 -2.44603,-5.29514 -4.36932,-9.38757 -1.34604,-2.87845 -2.62155,-5.5222 -3.9719,-8.4284596 -1.01265,-2.18167 -1.39429,-2.92428 -1.84886,-2.92428 -0.63075,-0.12515 -1.38142,1.86701 -1.93735,2.94316 -0.89638,1.7868696 -2.28609,4.6133396 -4.27987,8.7013396 -1.3856,3.09359 -3.14673,6.13299 -4.46325,9.21501 -0.91566,1.75403 0.69555,1.35898 1.89282,1.38565 l 1.96144,-0.0491 z m 53.21445,3.77511 c -0.0445,-7.07826 0.0179,-11.86685 -0.0524,-19.6707196 -0.0146,-1.62346 -0.95031,-1.55847 -1.98921,-1.52771 -1.64487,0.0487 -2.23637,-0.31299 -2.2055,1.30261 0.0686,3.5890796 0.12787,16.7287996 0.13133,20.1136296 0.001,1.2965 1.33248,1.31878 2.02439,1.30126 1.46375,-0.0371 2.04429,0.14644 2.09144,-1.51907 z m 39.498856,1.11955 c 0.50076,-0.0443 1.08028,-2.16615 1.10431,-2.82241 0.007,-0.162 -0.15594,-0.72058 -0.60786,-0.78547 -0.3432,-0.0493 -0.58547,-0.0659 -5.48791,-0.0659 h -5.66549 v -2.13645 -2.13646 c 2.8087,-0.0721 5.72367,-0.0565 8.53151,-0.0249 0.97203,0.0109 1.13293,-1.23922 1.15198,-1.91699 0.0453,-1.61064 0.16004,-1.94962 -0.975,-1.97717 -2.50548,-0.0608 -7.03047,0.0206 -8.70849,-0.0486 -0.0411,-0.1199 -0.0399,-1.6503 0,-3.40088 V 9.7986574 h 4.54498 c 3.53166,0 4.52973,0.0991 4.87875,-0.0618 0.50739,-0.23392 0.80235,-0.96656 1.08735,-1.83661 0.4345,-1.32646 -0.0774,-1.64619 -0.44371,-1.67461 -0.21934,-0.017 -4.49305,-0.0354 -8.43683,-0.0132 -3.48429,0.0197 -5.68127,-0.007 -5.80432,0.11923 -0.11465,0.11725 -0.18138,3.9927396 -0.17291,10.9897996 0.0111,9.17966 0.0533,10.84141 0.279,10.97531 0.14639,0.0869 3.4508,-10e-4 7.35165,0 1.75675,0.0499 6.35033,0.0906 7.37299,0 z m 7.85434,-7.9467 c 2.56984,-0.11236 5.34129,0.0879 7.75389,-0.0588 0.93208,-0.0567 0.99795,-0.39717 1.36177,-1.52326 0.35038,-1.0845 0.4611,-2.23881 -0.2424,-2.25011 -3.09408,-0.0222 -5.45501,-0.0288 -8.87326,-0.005 v -3.31369 -3.3136796 c 2.98519,-0.0461 7.12342,-0.005 9.75307,-0.0484 0.59138,-0.01 1.51914,-1.01806 1.65389,-1.82887 0.11612,-0.69871 0.31439,-1.92846 -0.83885,-1.95228 -1.60168,-0.0331 -10.70454,-0.0322 -13.85422,-0.05 -0.93481,-0.005 -0.75948,0.006 -0.77491,0.71718 7.7e-4,3.04064 0.0785,17.5676696 0.0137,20.9529196 -0.0684,0.86388 1.56154,0.779 2.33489,0.80193 1.10067,0.007 1.5397,-0.18509 1.71243,-0.92371 0.0503,-2.56604 -0.0165,-5.10724 0,-7.20423 z m 43.83879,4.33787 -4.1201,-0.0838 -0.1101,-8.60251 c 0,-4.35831 0.01,-7.2903496 -0.0256,-8.6025196 0.18098,-1.55837 -1.41173,-1.39658 -2.20994,-1.40036 -1.96842,-0.009 -1.8796,8e-5 -1.94935,1.12992 -0.0338,5.6375696 -0.12343,15.4160096 3e-4,20.3036696 -0.0624,0.79022 0.4037,0.91938 0.99879,0.9656 0.77764,0.0575 2.29994,0.0608 5.3605,0.062 l 5.34871,0.002 c 1.14107,4.3e-4 1.30319,-0.95529 1.55895,-1.74258 0.10283,-0.40649 0.41638,-1.25457 0.1494,-1.66842 -0.20026,-0.31042 -0.87606,-0.26097 -1.56058,-0.28017 m 13.17852,3.11039 c 3.72357,-1.15083 6.97955,-4.22733 7.70166,-7.8008 0.25159,-1.24504 0.39303,-2.02603 0.36558,-3.04941 -0.0308,-1.14722 -0.24842,-2.30513 -0.5925,-3.39152 -1.07843,-3.40502 -4.51359,-6.5611296 -8.44899,-7.1687996 -1.75725,-0.27133 -3.55634,-0.26256 -5.32598,-0.29661 -1.59997,-0.0308 -4.80763,-0.042 -4.79981,0.0976 0.0206,0.36699 -0.0375,21.7245796 0.0769,21.9762696 0.11499,0.25296 0.99288,0.23647 4.87795,0.17129 2.08861,-0.0782 4.59159,-0.0626 6.14519,-0.53802 z m -6.97506,-10.69578 V 9.7478274 l 2.40135,0.0106 c 1.28744,0.0109 2.70241,0.22006 3.14575,0.3576896 2.36496,0.43743 3.94608,2.29324 4.77693,4.86831 0.18454,0.57195 0.89064,2.37776 -0.18108,4.87111 -0.9397,2.02254 -1.96743,3.45642 -4.34744,4.14632 -0.63874,0.26947 -1.94279,0.51217 -3.18972,0.49251 l -2.60575,0.0328 z M 79.709244,28.209777 c 1.44463,-0.53002 3.08153,-2.0309 3.74186,-3.43094 0.84073,-1.78251 0.7822,-4.27826 -0.13878,-5.91743 -0.86065,-1.53179 -1.99427,-2.27012 -4.76764,-3.10516 -4.03341,-1.21443 -5.25112,-2.18527 -5.25112,-4.18654 0,-0.5727 0.12129,-0.9122 0.46123,-1.29101 0.68478,-0.7630796 1.35445,-0.9530296 3.11166,-0.8826196 1.24013,0.0497 1.73273,0.15573 2.51524,0.54141 0.53519,0.2637796 1.09895,0.4796096 1.25279,0.4796096 0.43115,0 1.95891,-1.9282496 1.95904,-2.4726096 1.6e-4,-0.63592 -0.69461,-1.1113 -2.30818,-1.57928 -1.94506,-0.56413 -5.5064,-0.54825 -7.07538,0.0315 -4.62509,1.70916 -5.38365,7.8301996 -1.28932,10.4039096 0.62596,0.39348 1.79777,0.96634 2.60403,1.27303 4.51234,1.71642 5.33209,2.34574 5.33209,4.09349 0,2.0061 -1.36038,3.07603 -3.90671,3.07259 -1.37104,-0.002 -2.75561,-0.47725 -3.80787,-1.30747 -0.30315,-0.23918 -0.73309,-0.4336 -0.95542,-0.43205 -0.50545,0.004 -2.34827,2.00898 -2.35356,2.56127 -0.006,0.61641 1.97874,1.78251 3.99535,2.3475 1.67394,0.46898 5.34944,0.36255 6.88069,-0.19925 z"
       id="path272-6-9"
       sodipodi:nodetypes="ssssssssssssssscscssssscsssscssssssscsssssscssssssccssscccssscsssssssssccccccccscsssssccscccsscssscsssssssccccscssccscsaccccscccsccsccccscscsssssssscsssssssscssssssssssssscscsssscsss" />
    <path
       id="path9632-5-6-2"
       style="fill:#c38933;stroke-width:0.367489"
       d="M 160.41346 5.9520915 A 11.416079 11.415999 0 0 0 148.99711 17.368449 A 11.416079 11.415999 0 0 0 160.41346 28.78429 A 11.416079 11.415999 0 0 0 171.82931 17.368449 A 11.416079 11.415999 0 0 0 160.41346 5.9520915 z M 160.41346 9.8174886 A 7.5506392 7.5505857 0 0 1 167.96391 17.368449 A 7.5506392 7.5505857 0 0 1 160.41346 24.918892 A 7.5506392 7.5505857 0 0 1 152.8625 17.368449 A 7.5506392 7.5505857 0 0 1 160.41346 9.8174886 z " />
  </g>
</svg>
