<svg xmlns="http://www.w3.org/2000/svg" xmlns:xlink="http://www.w3.org/1999/xlink" xmlns:lucid="lucid" width="1787" height="888"><g transform="translate(-21 81)" lucid:page-tab-id="0_0"><path d="M1390.8 25.32v158.24H448.6V25.32z" fill="#fff" fill-opacity="0"/><path d="M1390.8 41.15V25.32H448.6v15.83" stroke="#3a414a" stroke-width="3" fill="none"/><path d="M448.6 674.67V517.45h613.77v157.22z" fill="#fff" fill-opacity="0"/><path d="M448.6 658.95v15.72h613.77v-15.72" stroke="#3a414a" stroke-width="3" fill="none"/><path d="M448.6 371.88h285.34v134.67H448.6z" stroke="#3a414a" stroke-width="3" fill="#bda1f4"/><use xlink:href="#a" transform="matrix(1,0,0,1,462.8697035430224,378.6137888647865) translate(70.83055555555556 50.8234375)"/><use xlink:href="#b" transform="matrix(1,0,0,1,462.8697035430224,378.6137888647865) translate(83.07222222222222 82.0234375)"/><use xlink:href="#c" transform="matrix(1,0,0,1,462.8697035430224,378.6137888647865) translate(119.18333333333334 82.0234375)"/><path d="M777.03 371.88h285.34v134.67H777.03z" stroke="#3a414a" stroke-width="3" fill="#dda9f2"/><use xlink:href="#d" transform="matrix(1,0,0,1,791.2992046276212,378.6137888647868) translate(16.0138888888889 50.8234375)"/><use xlink:href="#e" transform="matrix(1,0,0,1,791.2992046276212,378.6137888647868) translate(128.5361111111111 50.8234375)"/><use xlink:href="#b" transform="matrix(1,0,0,1,791.2992046276212,378.6137888647868) translate(82.3138888888889 82.0234375)"/><use xlink:href="#f" transform="matrix(1,0,0,1,791.2992046276212,378.6137888647868) translate(118.42500000000001 82.0234375)"/><path d="M1105.46 371.88h285.34v134.67h-285.34z" stroke="#3a414a" stroke-width="3" fill="#bda1f4"/><use xlink:href="#g" transform="matrix(1,0,0,1,1119.7287057122196,378.6137888647865) translate(44.07222222222222 50.8234375)"/><use xlink:href="#h" transform="matrix(1,0,0,1,1119.7287057122196,378.6137888647865) translate(103.29444444444444 50.8234375)"/><use xlink:href="#b" transform="matrix(1,0,0,1,1119.7287057122196,378.6137888647865) translate(83.07222222222222 82.0234375)"/><use xlink:href="#c" transform="matrix(1,0,0,1,1119.7287057122196,378.6137888647865) translate(119.18333333333334 82.0234375)"/><path d="M670.8 80.16h84v80h-84z" stroke="#3a414a" stroke-width="3" fill="#979ea8"/><use xlink:href="#i" transform="matrix(1,0,0,1,675.0113702096893,84.15835140997855) translate(4.777777777777779 26.21796875)"/><use xlink:href="#j" transform="matrix(1,0,0,1,675.0113702096893,84.15835140997855) translate(30.77777777777778 57.41796875)"/><path d="M778.4 80.16h84v80h-84z" stroke="#3a414a" stroke-width="3" fill="#979ea8"/><use xlink:href="#i" transform="matrix(1,0,0,1,782.6003099893065,84.15835140997855) translate(4.777777777777779 26.21796875)"/><use xlink:href="#k" transform="matrix(1,0,0,1,782.6003099893065,84.15835140997855) translate(30.77777777777778 57.41796875)"/><path d="M886 80.16h84v80h-84z" stroke="#3a414a" stroke-width="3" fill="#979ea8"/><use xlink:href="#i" transform="matrix(1,0,0,1,890.1892497689238,84.15835140997855) translate(4.777777777777779 26.21796875)"/><use xlink:href="#l" transform="matrix(1,0,0,1,890.1892497689238,84.15835140997855) translate(30.77777777777778 57.41796875)"/><path d="M993.58 80.16h84v80h-84z" stroke="#3a414a" stroke-width="3" fill="#979ea8"/><use xlink:href="#m" transform="matrix(1,0,0,1,997.7781895485411,84.15835140997855) translate(16.333333333333336 41.61640625)"/><path d="M1101.17 80.16h84v80h-84z" stroke="#3a414a" stroke-width="3" fill="#979ea8"/><use xlink:href="#i" transform="matrix(1,0,0,1,1105.3671293281584,84.15835140997855) translate(4.777777777777779 26.21796875)"/><use xlink:href="#n" transform="matrix(1,0,0,1,1105.3671293281584,84.15835140997855) translate(30.77777777777778 57.41796875)"/><path d="M62.27 296.7H347.6V431.4H62.27z" stroke="#3a414a" stroke-width="3" fill="#8faee7"/><use xlink:href="#o" transform="matrix(1,0,0,1,76.53637020968883,303.44712219812016) translate(14.063888888888911 66.0734375)"/><use xlink:href="#p" transform="matrix(1,0,0,1,76.53637020968883,303.44712219812016) translate(100.08055555555556 66.0734375)"/><path d="M62.27 447.05H347.6V581.7H62.27z" stroke="#3a414a" stroke-width="3" fill="#8faee7"/><use xlink:href="#q" transform="matrix(1,0,0,1,76.53637020968897,453.78045553145364) translate(61.44166666666668 66.0734375)"/><path d="M366.6 439.2l63-.5" stroke="#3a414a" stroke-width="3" stroke-linejoin="round" fill="none"/><path d="M366.66 440.68h-1.55v-2.94h1.54z" stroke="#3a414a" stroke-width=".05" fill="#3a414a"/><path d="M444.1 438.57l-12.93 7.6-.12-15z" stroke="#3a414a" stroke-width="3" fill="#3a414a"/><path d="M1393.8 439.2h68.26" stroke="#3a414a" stroke-width="3" stroke-linejoin="round" fill="none"/><path d="M1393.84 440.7h-1.54v-2.96h1.54z" stroke="#3a414a" stroke-width=".05" fill="#3a414a"/><path d="M1476.55 439.2l-13 7.5v-15z" stroke="#3a414a" stroke-width="3" fill="#3a414a"/><path d="M506.6 570.55h169.34v80H506.6z" stroke="#3a414a" stroke-width="3" fill="#979ea8"/><use xlink:href="#r" transform="matrix(1,0,0,1,515.0697035430225,574.54712219812) translate(43.277777777777786 41.61640625)"/><path d="M588.6 509.38v42.18" stroke="#3a414a" stroke-width="3" stroke-linejoin="round" fill="none"/><path d="M588.6 509.42v-1.54" stroke="#3a414a" stroke-width="3" fill="none"/><path d="M588.6 566.05l-7.5-13h15z" stroke="#3a414a" stroke-width="3" fill="#3a414a"/><path d="M145.6 218.37a6 6 0 0 1 6-6h106.66a6 6 0 0 1 6 6v56.68a6 6 0 0 1-6 6H151.6a6 6 0 0 1-6-6z" fill="none"/><use xlink:href="#s" transform="matrix(1,0,0,1,150.61038255536783,217.3704555314533) translate(0 39.27777777777778)"/><path d="M445.86-77.85a6 6 0 0 1 6-6h932.93a6 6 0 0 1 6 6v126a6 6 0 0 1-6 6H451.86a6 6 0 0 1-6-6z" fill="none"/><use xlink:href="#t" transform="matrix(1,0,0,1,450.8641192153758,-78.84800157402144) translate(0 74.27777777777777)"/><use xlink:href="#u" transform="matrix(1,0,0,1,450.8641192153758,-78.84800157402144) translate(249.46913580246922 74.27777777777777)"/><use xlink:href="#v" transform="matrix(1,0,0,1,450.8641192153758,-78.84800157402144) translate(466.61728395061743 74.27777777777777)"/><use xlink:href="#w" transform="matrix(1,0,0,1,450.8641192153758,-78.84800157402144) translate(531.8024691358027 74.27777777777777)"/><use xlink:href="#x" transform="matrix(1,0,0,1,450.8641192153758,-78.84800157402144) translate(740.5308641975311 74.27777777777777)"/><path d="M1481.05 183.56h285.34v120h-285.35z" stroke="#3a414a" stroke-width="3" fill="#fcc5a0"/><use xlink:href="#y" transform="matrix(1,0,0,1,1495.3198120028926,189.5571221981203) translate(5.108333333333334 43.58125)"/><use xlink:href="#z" transform="matrix(1,0,0,1,1495.3198120028926,189.5571221981203) translate(70.03611111111111 43.58125)"/><use xlink:href="#A" transform="matrix(1,0,0,1,1495.3198120028926,189.5571221981203) translate(98.925 43.58125)"/><use xlink:href="#B" transform="matrix(1,0,0,1,1495.3198120028926,189.5571221981203) translate(215.78055555555557 43.58125)"/><use xlink:href="#C" transform="matrix(1,0,0,1,1495.3198120028926,189.5571221981203) translate(26.811111111111117 74.78125)"/><use xlink:href="#D" transform="matrix(1,0,0,1,1495.3198120028926,189.5571221981203) translate(71.51666666666667 74.78125)"/><path d="M1481.05 366.22h285.34V500.9h-285.35z" stroke="#3a414a" stroke-width="3" fill="#fcc5a0"/><use xlink:href="#E" transform="matrix(1,0,0,1,1495.3198120028926,372.9571221981201) translate(48.44166666666668 35.096875)"/><use xlink:href="#F" transform="matrix(1,0,0,1,1495.3198120028926,372.9571221981201) translate(136.3361111111111 35.096875)"/><use xlink:href="#G" transform="matrix(1,0,0,1,1495.3198120028926,372.9571221981201) translate(36.92222222222223 66.296875)"/><use xlink:href="#H" transform="matrix(1,0,0,1,1495.3198120028926,372.9571221981201) translate(96 66.296875)"/><use xlink:href="#I" transform="matrix(1,0,0,1,1495.3198120028926,372.9571221981201) translate(129.07777777777778 66.296875)"/><use xlink:href="#J" transform="matrix(1,0,0,1,1495.3198120028926,372.9571221981201) translate(85.88888888888889 97.496875)"/><path d="M1481.05 563.56h285.34v120h-285.35z" stroke="#3a414a" stroke-width="3" fill="#fcc5a0"/><use xlink:href="#K" transform="matrix(1,0,0,1,1495.3198120028926,569.5571221981198) translate(11.680555555555571 27.971875)"/><use xlink:href="#L" transform="matrix(1,0,0,1,1495.3198120028926,569.5571221981198) translate(147.24166666666667 27.971875)"/><use xlink:href="#M" transform="matrix(1,0,0,1,1495.3198120028926,569.5571221981198) translate(4.422222222222246 59.171875)"/><use xlink:href="#N" transform="matrix(1,0,0,1,1495.3198120028926,569.5571221981198) translate(153.05555555555557 59.171875)"/><use xlink:href="#O" transform="matrix(1,0,0,1,1495.3198120028926,569.5571221981198) translate(209.24444444444444 59.171875)"/><use xlink:href="#P" transform="matrix(1,0,0,1,1495.3198120028926,569.5571221981198) translate(102.57222222222222 90.371875)"/><path d="M1544.05 98.2a6 6 0 0 1 6-6h144.67a6 6 0 0 1 6 6v56.7a6 6 0 0 1-6 6h-144.67a6 6 0 0 1-6-6z" fill="none"/><use xlink:href="#Q" transform="matrix(1,0,0,1,1549.0481453362258,97.21378886478658) translate(0 39.27777777777778)"/><path d="M1193.46 67.64a3.55 3.55 0 0 1 3.55-3.55 3.55 3.55 0 0 1 3.56 3.54v105.04a3.55 3.55 0 0 1-3.55 3.54 3.55 3.55 0 0 1-3.54-3.54z" stroke="#000" stroke-opacity="0" stroke-width="3" fill-opacity="0"/><path d="M649.78 238.55h556.1v69.33H649.8z" stroke="#3a414a" stroke-width="3" fill="#979ea8"/><use xlink:href="#R" transform="matrix(1,0,0,1,677.5876429384676,242.01378886478642) translate(14.730555555555583 36.55)"/><use xlink:href="#S" transform="matrix(1,0,0,1,677.5876429384676,242.01378886478642) translate(117.14166666666668 36.55)"/><use xlink:href="#T" transform="matrix(1,0,0,1,677.5876429384676,242.01378886478642) translate(228.1472222222222 36.55)"/><use xlink:href="#U" transform="matrix(1,0,0,1,677.5876429384676,242.01378886478642) translate(265.63055555555553 36.55)"/><use xlink:href="#V" transform="matrix(1,0,0,1,677.5876429384676,242.01378886478642) translate(373.81944444444446 36.55)"/><path d="M929.63 370.83v-35.9M929.63 370.8v1.53" stroke="#3a414a" stroke-width="3" fill="none"/><path d="M929.63 320.44l7.5 13h-15z" stroke="#3a414a" stroke-width="3" fill="#3a414a"/><path d="M1202.06 120.16H1302V352.9" stroke="#3a414a" stroke-width="3" fill="none"/><path d="M1202.1 121.63h-1.54v-2.95h1.54z" stroke="#3a414a" stroke-width=".05" fill="#3a414a"/><path d="M1302 367.38l-7.5-13h15z" stroke="#3a414a" stroke-width="3" fill="#3a414a"/><path d="M814.83 38.34a6 6 0 0 1 6-6h214.32a6 6 0 0 1 6 6v29.2a6 6 0 0 1-6 6H820.83a6 6 0 0 1-6-6z" fill="none"/><g><use xlink:href="#W" transform="matrix(1,0,0,1,819.8314719911461,37.337122198120056) translate(0 21.2)"/><use xlink:href="#X" transform="matrix(1,0,0,1,819.8314719911461,37.337122198120056) translate(97.93333333333331 21.2)"/><use xlink:href="#Y" transform="matrix(1,0,0,1,819.8314719911461,37.337122198120056) translate(125.30555555555553 21.2)"/></g><path d="M820.4 179.15v56.4" stroke="#3a414a" stroke-width="3" fill="none"/><path d="M820.4 164.66l7.5 13h-15z" stroke="#3a414a" stroke-width="3" fill="#3a414a"/><path d="M821.88 235.5v1.55h-2.96v-1.54z" stroke="#3a414a" stroke-width=".05" fill="#3a414a"/><path d="M928 179.15v56.4" stroke="#3a414a" stroke-width="3" fill="none"/><path d="M928 164.66l7.5 13h-15z" stroke="#3a414a" stroke-width="3" fill="#3a414a"/><path d="M929.46 237.05h-2.95v-1.54h2.96z" stroke="#3a414a" stroke-width=".05" fill="#3a414a"/><path d="M1035.58 179.15v56.4" stroke="#3a414a" stroke-width="3" fill="none"/><path d="M1035.58 164.66l7.5 13h-15z" stroke="#3a414a" stroke-width="3" fill="#3a414a"/><path d="M1037.05 237.05h-2.95v-1.54h2.95z" stroke="#3a414a" stroke-width=".05" fill="#3a414a"/><path d="M1143.17 179.15v56.4" stroke="#3a414a" stroke-width="3" fill="none"/><path d="M1143.17 164.66l7.5 13h-15z" stroke="#3a414a" stroke-width="3" fill="#3a414a"/><path d="M1144.64 237.05h-2.95v-1.54h2.94z" stroke="#3a414a" stroke-width=".05" fill="#3a414a"/><path d="M712.8 179.15v56.4" stroke="#3a414a" stroke-width="3" fill="none"/><path d="M712.8 164.66l7.5 13h-15z" stroke="#3a414a" stroke-width="3" fill="#3a414a"/><path d="M714.3 235.5v1.55h-2.96v-1.54z" stroke="#3a414a" stroke-width=".05" fill="#3a414a"/><path d="M678.94 610.55H930v-85" stroke="#3a414a" stroke-width="3" fill="none"/><path d="M678.98 612.02h-1.54v-2.95h1.53z" stroke="#3a414a" stroke-width=".05" fill="#3a414a"/><path d="M930 511.05l7.5 13h-15z" stroke="#3a414a" stroke-width="3" fill="#3a414a"/><path d="M424.3 682.74a6 6 0 0 1 6-6h650.38a6 6 0 0 1 6 6v94.66a6 6 0 0 1-6 6h-650.4a6 6 0 0 1-6-6z" fill="none"/><g><use xlink:href="#Z" transform="matrix(1,0,0,1,424.2943008162213,676.7355211252677) translate(88.2283950617284 41.05555555555556)"/><use xlink:href="#aa" transform="matrix(1,0,0,1,424.2943008162213,676.7355211252677) translate(259.08024691358025 41.05555555555556)"/><use xlink:href="#ab" transform="matrix(1,0,0,1,424.2943008162213,676.7355211252677) translate(417.7469135802469 41.05555555555556)"/><use xlink:href="#ac" transform="matrix(1,0,0,1,424.2943008162213,676.7355211252677) translate(143.40740740740742 78.38888888888889)"/><use xlink:href="#ad" transform="matrix(1,0,0,1,424.2943008162213,676.7355211252677) translate(307.25925925925924 78.38888888888889)"/><use xlink:href="#ae" transform="matrix(1,0,0,1,424.2943008162213,676.7355211252677) translate(415.9753086419753 78.38888888888889)"/></g><path d="M1391.13 244.88h-.04v378.68h70.96M1391.1 244.88h1.53" stroke="#3a414a" stroke-width="3" fill="none"/><path d="M1476.55 623.56l-13 7.5v-15z" stroke="#3a414a" stroke-width="3" fill="#3a414a"/><path d="M1390.42 375.67l-.05-132.1h71.7M1390.42 375.63v1.54" stroke="#3a414a" stroke-width="3" fill="none"/><path d="M1476.55 243.56l-13 7.5v-15z" stroke="#3a414a" stroke-width="3" fill="#3a414a"/><g><path d="M363.6 600.13H206.4V278.3h157.2z" fill="#fff" fill-opacity="0"/><path d="M347.9 600.13h15.7V278.3h-15.7" stroke="#3a414a" stroke-width="3" fill="none"/></g><defs><path d="M205 0l-28-72H64L36 0H1l101-248h38L239 0h-34zm-38-99l-47-123c-12 45-31 82-46 123h93" id="af"/><path d="M24 0v-261h32V0H24" id="ag"/><path d="M24-231v-30h32v30H24zM24 0v-190h32V0H24" id="ah"/><path d="M177-190C167-65 218 103 67 71c-23-6-38-20-44-43l32-5c15 47 100 32 89-28v-30C133-14 115 1 83 1 29 1 15-40 15-95c0-56 16-97 71-98 29-1 48 16 59 35 1-10 0-23 2-32h30zM94-22c36 0 50-32 50-73 0-42-14-75-50-75-39 0-46 34-46 75s6 73 46 73" id="ai"/><path d="M117-194c89-4 53 116 60 194h-32v-121c0-31-8-49-39-48C34-167 62-67 57 0H25l-1-190h30c1 10-1 24 2 32 11-22 29-35 61-36" id="aj"/><path d="M210-169c-67 3-38 105-44 169h-31v-121c0-29-5-50-35-48C34-165 62-65 56 0H25l-1-190h30c1 10-1 24 2 32 10-44 99-50 107 0 11-21 27-35 58-36 85-2 47 119 55 194h-31v-121c0-29-5-49-35-48" id="ak"/><path d="M100-194c63 0 86 42 84 106H49c0 40 14 67 53 68 26 1 43-12 49-29l28 8c-11 28-37 45-77 45C44 4 14-33 15-96c1-61 26-98 85-98zm52 81c6-60-76-77-97-28-3 7-6 17-6 28h103" id="al"/><path d="M59-47c-2 24 18 29 38 22v24C64 9 27 4 27-40v-127H5v-23h24l9-43h21v43h35v23H59v120" id="am"/><g id="a"><use transform="matrix(0.07222222222222222,0,0,0.07222222222222222,0,0)" xlink:href="#af"/><use transform="matrix(0.07222222222222222,0,0,0.07222222222222222,17.333333333333332,0)" xlink:href="#ag"/><use transform="matrix(0.07222222222222222,0,0,0.07222222222222222,23.038888888888888,0)" xlink:href="#ah"/><use transform="matrix(0.07222222222222222,0,0,0.07222222222222222,28.74444444444444,0)" xlink:href="#ai"/><use transform="matrix(0.07222222222222222,0,0,0.07222222222222222,43.18888888888888,0)" xlink:href="#aj"/><use transform="matrix(0.07222222222222222,0,0,0.07222222222222222,57.633333333333326,0)" xlink:href="#ak"/><use transform="matrix(0.07222222222222222,0,0,0.07222222222222222,79.22777777777776,0)" xlink:href="#al"/><use transform="matrix(0.07222222222222222,0,0,0.07222222222222222,93.6722222222222,0)" xlink:href="#aj"/><use transform="matrix(0.07222222222222222,0,0,0.07222222222222222,108.11666666666665,0)" xlink:href="#am"/></g><path d="M100-194c62-1 85 37 85 99 1 63-27 99-86 99S16-35 15-95c0-66 28-99 85-99zM99-20c44 1 53-31 53-75 0-43-8-75-51-75s-53 32-53 75 10 74 51 75" id="an"/><g id="b"><use transform="matrix(0.07222222222222222,0,0,0.07222222222222222,0,0)" xlink:href="#an"/><use transform="matrix(0.07222222222222222,0,0,0.07222222222222222,14.444444444444443,0)" xlink:href="#aj"/></g><path d="M212-179c-10-28-35-45-73-45-59 0-87 40-87 99 0 60 29 101 89 101 43 0 62-24 78-52l27 14C228-24 195 4 139 4 59 4 22-46 18-125c-6-104 99-153 187-111 19 9 31 26 39 46" id="ao"/><path d="M30-248c87 1 191-15 191 75 0 78-77 80-158 76V0H30v-248zm33 125c57 0 124 11 124-50 0-59-68-47-124-48v98" id="ap"/><path d="M232-93c-1 65-40 97-104 97C67 4 28-28 28-90v-158h33c8 89-33 224 67 224 102 0 64-133 71-224h33v155" id="aq"/><g id="c"><use transform="matrix(0.07222222222222222,0,0,0.07222222222222222,0,0)" xlink:href="#ao"/><use transform="matrix(0.07222222222222222,0,0,0.07222222222222222,18.705555555555552,0)" xlink:href="#ap"/><use transform="matrix(0.07222222222222222,0,0,0.07222222222222222,36.038888888888884,0)" xlink:href="#aq"/></g><path d="M185-189c-5-48-123-54-124 2 14 75 158 14 163 119 3 78-121 87-175 55-17-10-28-26-33-46l33-7c5 56 141 63 141-1 0-78-155-14-162-118-5-82 145-84 179-34 5 7 8 16 11 25" id="ar"/><path d="M114-163C36-179 61-72 57 0H25l-1-190h30c1 12-1 29 2 39 6-27 23-49 58-41v29" id="as"/><path d="M84 4C-5 8 30-112 23-190h32v120c0 31 7 50 39 49 72-2 45-101 50-169h31l1 190h-30c-1-10 1-25-2-33-11 22-28 36-60 37" id="at"/><path d="M96-169c-40 0-48 33-48 73s9 75 48 75c24 0 41-14 43-38l32 2c-6 37-31 61-74 61-59 0-76-41-82-99-10-93 101-131 147-64 4 7 5 14 7 22l-32 3c-4-21-16-35-41-35" id="au"/><g id="d"><use transform="matrix(0.07222222222222222,0,0,0.07222222222222222,0,0)" xlink:href="#ar"/><use transform="matrix(0.07222222222222222,0,0,0.07222222222222222,17.333333333333332,0)" xlink:href="#am"/><use transform="matrix(0.07222222222222222,0,0,0.07222222222222222,24.555555555555554,0)" xlink:href="#as"/><use transform="matrix(0.07222222222222222,0,0,0.07222222222222222,33.15,0)" xlink:href="#at"/><use transform="matrix(0.07222222222222222,0,0,0.07222222222222222,47.59444444444444,0)" xlink:href="#au"/><use transform="matrix(0.07222222222222222,0,0,0.07222222222222222,60.59444444444444,0)" xlink:href="#am"/><use transform="matrix(0.07222222222222222,0,0,0.07222222222222222,67.81666666666666,0)" xlink:href="#at"/><use transform="matrix(0.07222222222222222,0,0,0.07222222222222222,82.2611111111111,0)" xlink:href="#as"/><use transform="matrix(0.07222222222222222,0,0,0.07222222222222222,90.85555555555554,0)" xlink:href="#al"/></g><path d="M115-194c55 1 70 41 70 98S169 2 115 4C84 4 66-9 55-30l1 105H24l-1-265h31l2 30c10-21 28-34 59-34zm-8 174c40 0 45-34 45-75s-6-73-45-74c-42 0-51 32-51 76 0 43 10 73 51 73" id="av"/><path d="M85-194c31 0 48 13 60 33l-1-100h32l1 261h-30c-2-10 0-23-3-31C134-8 116 4 85 4 32 4 16-35 15-94c0-66 23-100 70-100zm9 24c-40 0-46 34-46 75 0 40 6 74 45 74 42 0 51-32 51-76 0-42-9-74-50-73" id="aw"/><g id="e"><use transform="matrix(0.07222222222222222,0,0,0.07222222222222222,0,0)" xlink:href="#av"/><use transform="matrix(0.07222222222222222,0,0,0.07222222222222222,14.444444444444443,0)" xlink:href="#as"/><use transform="matrix(0.07222222222222222,0,0,0.07222222222222222,23.038888888888884,0)" xlink:href="#al"/><use transform="matrix(0.07222222222222222,0,0,0.07222222222222222,37.48333333333333,0)" xlink:href="#aw"/><use transform="matrix(0.07222222222222222,0,0,0.07222222222222222,51.92777777777777,0)" xlink:href="#ah"/><use transform="matrix(0.07222222222222222,0,0,0.07222222222222222,57.633333333333326,0)" xlink:href="#au"/><use transform="matrix(0.07222222222222222,0,0,0.07222222222222222,70.63333333333333,0)" xlink:href="#am"/><use transform="matrix(0.07222222222222222,0,0,0.07222222222222222,77.85555555555555,0)" xlink:href="#ah"/><use transform="matrix(0.07222222222222222,0,0,0.07222222222222222,83.5611111111111,0)" xlink:href="#an"/><use transform="matrix(0.07222222222222222,0,0,0.07222222222222222,98.00555555555555,0)" xlink:href="#aj"/></g><path d="M143 4C61 4 22-44 18-125c-5-107 100-154 193-111 17 8 29 25 37 43l-32 9c-13-25-37-40-76-40-61 0-88 39-88 99 0 61 29 100 91 101 35 0 62-11 79-27v-45h-74v-28h105v86C228-13 192 4 143 4" id="ax"/><g id="f"><use transform="matrix(0.07222222222222222,0,0,0.07222222222222222,0,0)" xlink:href="#ax"/><use transform="matrix(0.07222222222222222,0,0,0.07222222222222222,20.22222222222222,0)" xlink:href="#ap"/><use transform="matrix(0.07222222222222222,0,0,0.07222222222222222,37.55555555555556,0)" xlink:href="#aq"/></g><path d="M135-143c-3-34-86-38-87 0 15 53 115 12 119 90S17 21 10-45l28-5c4 36 97 45 98 0-10-56-113-15-118-90-4-57 82-63 122-42 12 7 21 19 24 35" id="ay"/><g id="g"><use transform="matrix(0.07222222222222222,0,0,0.07222222222222222,0,0)" xlink:href="#ap"/><use transform="matrix(0.07222222222222222,0,0,0.07222222222222222,17.333333333333332,0)" xlink:href="#an"/><use transform="matrix(0.07222222222222222,0,0,0.07222222222222222,31.777777777777775,0)" xlink:href="#ay"/><use transform="matrix(0.07222222222222222,0,0,0.07222222222222222,44.77777777777777,0)" xlink:href="#am"/></g><path d="M141-36C126-15 110 5 73 4 37 3 15-17 15-53c-1-64 63-63 125-63 3-35-9-54-41-54-24 1-41 7-42 31l-33-3c5-37 33-52 76-52 45 0 72 20 72 64v82c-1 20 7 32 28 27v20c-31 9-61-2-59-35zM48-53c0 20 12 33 32 33 41-3 63-29 60-74-43 2-92-5-92 41" id="az"/><g id="h"><use transform="matrix(0.07222222222222222,0,0,0.07222222222222222,0,0)" xlink:href="#am"/><use transform="matrix(0.07222222222222222,0,0,0.07222222222222222,7.222222222222221,0)" xlink:href="#as"/><use transform="matrix(0.07222222222222222,0,0,0.07222222222222222,15.816666666666665,0)" xlink:href="#al"/><use transform="matrix(0.07222222222222222,0,0,0.07222222222222222,30.261111111111106,0)" xlink:href="#az"/><use transform="matrix(0.07222222222222222,0,0,0.07222222222222222,44.70555555555555,0)" xlink:href="#am"/><use transform="matrix(0.07222222222222222,0,0,0.07222222222222222,51.92777777777777,0)" xlink:href="#ak"/><use transform="matrix(0.07222222222222222,0,0,0.07222222222222222,73.52222222222221,0)" xlink:href="#al"/><use transform="matrix(0.07222222222222222,0,0,0.07222222222222222,87.96666666666665,0)" xlink:href="#aj"/><use transform="matrix(0.07222222222222222,0,0,0.07222222222222222,102.4111111111111,0)" xlink:href="#am"/></g><path fill="#fff" d="M160-131c35 5 61 23 61 61C221 17 115-2 30 0v-248c76 3 177-17 177 60 0 33-19 50-47 57zm-97-11c50-1 110 9 110-42 0-47-63-36-110-37v79zm0 115c55-2 124 14 124-45 0-56-70-42-124-44v89" id="aA"/><path fill="#fff" d="M141-36C126-15 110 5 73 4 37 3 15-17 15-53c-1-64 63-63 125-63 3-35-9-54-41-54-24 1-41 7-42 31l-33-3c5-37 33-52 76-52 45 0 72 20 72 64v82c-1 20 7 32 28 27v20c-31 9-61-2-59-35zM48-53c0 20 12 33 32 33 41-3 63-29 60-74-43 2-92-5-92 41" id="aB"/><path fill="#fff" d="M59-47c-2 24 18 29 38 22v24C64 9 27 4 27-40v-127H5v-23h24l9-43h21v43h35v23H59v120" id="aC"/><path fill="#fff" d="M96-169c-40 0-48 33-48 73s9 75 48 75c24 0 41-14 43-38l32 2c-6 37-31 61-74 61-59 0-76-41-82-99-10-93 101-131 147-64 4 7 5 14 7 22l-32 3c-4-21-16-35-41-35" id="aD"/><path fill="#fff" d="M106-169C34-169 62-67 57 0H25v-261h32l-1 103c12-21 28-36 61-36 89 0 53 116 60 194h-32v-121c2-32-8-49-39-48" id="aE"/><g id="i"><use transform="matrix(0.07222222222222222,0,0,0.07222222222222222,0,0)" xlink:href="#aA"/><use transform="matrix(0.07222222222222222,0,0,0.07222222222222222,17.333333333333332,0)" xlink:href="#aB"/><use transform="matrix(0.07222222222222222,0,0,0.07222222222222222,31.777777777777775,0)" xlink:href="#aC"/><use transform="matrix(0.07222222222222222,0,0,0.07222222222222222,38.99999999999999,0)" xlink:href="#aD"/><use transform="matrix(0.07222222222222222,0,0,0.07222222222222222,52,0)" xlink:href="#aE"/></g><path fill="#fff" d="M27 0v-27h64v-190l-56 39v-29l58-41h29v221h61V0H27" id="aF"/><use transform="matrix(0.07222222222222222,0,0,0.07222222222222222,0,0)" xlink:href="#aF" id="j"/><path fill="#fff" d="M101-251c82-7 93 87 43 132L82-64C71-53 59-42 53-27h129V0H18c2-99 128-94 128-182 0-28-16-43-45-43s-46 15-49 41l-32-3c6-41 34-60 81-64" id="aG"/><use transform="matrix(0.07222222222222222,0,0,0.07222222222222222,0,0)" xlink:href="#aG" id="k"/><path fill="#fff" d="M126-127c33 6 58 20 58 59 0 88-139 92-164 29-3-8-5-16-6-25l32-3c6 27 21 44 54 44 32 0 52-15 52-46 0-38-36-46-79-43v-28c39 1 72-4 72-42 0-27-17-43-46-43-28 0-47 15-49 41l-32-3c6-42 35-63 81-64 48-1 79 21 79 65 0 36-21 52-52 59" id="aH"/><use transform="matrix(0.07222222222222222,0,0,0.07222222222222222,0,0)" xlink:href="#aH" id="l"/><path fill="#fff" d="M33 0v-38h34V0H33" id="aI"/><g id="m"><use transform="matrix(0.07222222222222222,0,0,0.07222222222222222,0,0)" xlink:href="#aI"/><use transform="matrix(0.07222222222222222,0,0,0.07222222222222222,7.222222222222221,0)" xlink:href="#aI"/><use transform="matrix(0.07222222222222222,0,0,0.07222222222222222,14.444444444444443,0)" xlink:href="#aI"/><use transform="matrix(0.07222222222222222,0,0,0.07222222222222222,21.666666666666664,0)" xlink:href="#aI"/><use transform="matrix(0.07222222222222222,0,0,0.07222222222222222,28.888888888888886,0)" xlink:href="#aI"/><use transform="matrix(0.07222222222222222,0,0,0.07222222222222222,36.11111111111111,0)" xlink:href="#aI"/></g><path fill="#fff" d="M117-194c89-4 53 116 60 194h-32v-121c0-31-8-49-39-48C34-167 62-67 57 0H25l-1-190h30c1 10-1 24 2 32 11-22 29-35 61-36" id="aJ"/><use transform="matrix(0.07222222222222222,0,0,0.07222222222222222,0,0)" xlink:href="#aJ" id="n"/><path d="M63-220v92h138v28H63V0H30v-248h175v28H63" id="aK"/><path d="M127-220V0H93v-220H8v-28h204v28h-85" id="aL"/><g id="o"><use transform="matrix(0.07222222222222222,0,0,0.07222222222222222,0,0)" xlink:href="#aK"/><use transform="matrix(0.07222222222222222,0,0,0.07222222222222222,14.37222222222222,0)" xlink:href="#af"/><use transform="matrix(0.07222222222222222,0,0,0.07222222222222222,31.705555555555552,0)" xlink:href="#ar"/><use transform="matrix(0.07222222222222222,0,0,0.07222222222222222,49.038888888888884,0)" xlink:href="#aL"/><use transform="matrix(0.07222222222222222,0,0,0.07222222222222222,62.905555555555544,0)" xlink:href="#af"/></g><path d="M145-31C134-9 116 4 85 4 32 4 16-35 15-94c0-59 17-99 70-100 32-1 48 14 60 33 0-11-1-24 2-32h30l-1 268h-32zM93-21c41 0 51-33 51-76s-8-73-50-73c-40 0-46 35-46 75s5 74 45 74" id="aM"/><path d="M87 75C49 33 22-17 22-94c0-76 28-126 65-167h31c-38 41-64 92-64 168S80 34 118 75H87" id="aN"/><path d="M33-261c38 41 65 92 65 168S71 34 33 75H2C39 34 66-17 66-93S39-220 2-261h31" id="aO"/><g id="p"><use transform="matrix(0.07222222222222222,0,0,0.07222222222222222,0,0)" xlink:href="#ay"/><use transform="matrix(0.07222222222222222,0,0,0.07222222222222222,12.999999999999998,0)" xlink:href="#al"/><use transform="matrix(0.07222222222222222,0,0,0.07222222222222222,27.444444444444443,0)" xlink:href="#aM"/><use transform="matrix(0.07222222222222222,0,0,0.07222222222222222,41.888888888888886,0)" xlink:href="#at"/><use transform="matrix(0.07222222222222222,0,0,0.07222222222222222,56.33333333333333,0)" xlink:href="#al"/><use transform="matrix(0.07222222222222222,0,0,0.07222222222222222,70.77777777777777,0)" xlink:href="#aj"/><use transform="matrix(0.07222222222222222,0,0,0.07222222222222222,85.22222222222221,0)" xlink:href="#au"/><use transform="matrix(0.07222222222222222,0,0,0.07222222222222222,98.22222222222221,0)" xlink:href="#al"/><use transform="matrix(0.07222222222222222,0,0,0.07222222222222222,112.66666666666666,0)" xlink:href="#aN"/><use transform="matrix(0.07222222222222222,0,0,0.07222222222222222,121.2611111111111,0)" xlink:href="#ay"/><use transform="matrix(0.07222222222222222,0,0,0.07222222222222222,134.2611111111111,0)" xlink:href="#aO"/></g><g id="q"><use transform="matrix(0.07222222222222222,0,0,0.07222222222222222,0,0)" xlink:href="#ap"/><use transform="matrix(0.07222222222222222,0,0,0.07222222222222222,17.333333333333332,0)" xlink:href="#az"/><use transform="matrix(0.07222222222222222,0,0,0.07222222222222222,31.777777777777775,0)" xlink:href="#as"/><use transform="matrix(0.07222222222222222,0,0,0.07222222222222222,40.37222222222222,0)" xlink:href="#az"/><use transform="matrix(0.07222222222222222,0,0,0.07222222222222222,54.81666666666666,0)" xlink:href="#ak"/><use transform="matrix(0.07222222222222222,0,0,0.07222222222222222,76.4111111111111,0)" xlink:href="#al"/><use transform="matrix(0.07222222222222222,0,0,0.07222222222222222,90.85555555555554,0)" xlink:href="#am"/><use transform="matrix(0.07222222222222222,0,0,0.07222222222222222,98.07777777777775,0)" xlink:href="#al"/><use transform="matrix(0.07222222222222222,0,0,0.07222222222222222,112.5222222222222,0)" xlink:href="#as"/><use transform="matrix(0.07222222222222222,0,0,0.07222222222222222,121.11666666666665,0)" xlink:href="#ay"/></g><path fill="#fff" d="M220-157c-53 9-28 100-34 157h-49v-107c1-27-5-49-29-50C55-147 81-57 75 0H25l-1-190h47c2 12-1 28 3 38 10-53 101-56 108 0 13-22 24-43 59-42 82 1 51 116 57 194h-49v-107c-1-25-5-48-29-50" id="aP"/><path fill="#fff" d="M137-138c1-29-70-34-71-4 15 46 118 7 119 86 1 83-164 76-172 9l43-7c4 19 20 25 44 25 33 8 57-30 24-41C81-84 22-81 20-136c-2-80 154-74 161-7" id="aQ"/><path fill="#fff" d="M133-34C117-15 103 5 69 4 32 3 11-16 11-54c-1-60 55-63 116-61 1-26-3-47-28-47-18 1-26 9-28 27l-52-2c7-38 36-58 82-57s74 22 75 68l1 82c-1 14 12 18 25 15v27c-30 8-71 5-69-32zm-48 3c29 0 43-24 42-57-32 0-66-3-65 30 0 17 8 27 23 27" id="aR"/><g id="r"><use transform="matrix(0.07222222222222222,0,0,0.07222222222222222,0,0)" xlink:href="#aP"/><use transform="matrix(0.07222222222222222,0,0,0.07222222222222222,23.111111111111107,0)" xlink:href="#aQ"/><use transform="matrix(0.07222222222222222,0,0,0.07222222222222222,37.55555555555555,0)" xlink:href="#aR"/><use transform="matrix(0.07222222222222222,0,0,0.07222222222222222,51.99999999999999,0)" xlink:href="#aQ"/></g><path d="M33 0v-248h34V0H33" id="aS"/><g id="s"><use transform="matrix(0.1358024691358025,0,0,0.1358024691358025,0,0)" xlink:href="#aS"/><use transform="matrix(0.1358024691358025,0,0,0.1358024691358025,13.580246913580249,0)" xlink:href="#aj"/><use transform="matrix(0.1358024691358025,0,0,0.1358024691358025,40.74074074074075,0)" xlink:href="#av"/><use transform="matrix(0.1358024691358025,0,0,0.1358024691358025,67.90123456790124,0)" xlink:href="#at"/><use transform="matrix(0.1358024691358025,0,0,0.1358024691358025,95.06172839506175,0)" xlink:href="#am"/></g><g id="t"><use transform="matrix(0.1358024691358025,0,0,0.1358024691358025,0,0)" xlink:href="#ao"/><use transform="matrix(0.1358024691358025,0,0,0.1358024691358025,35.17283950617284,0)" xlink:href="#an"/><use transform="matrix(0.1358024691358025,0,0,0.1358024691358025,62.33333333333334,0)" xlink:href="#ak"/><use transform="matrix(0.1358024691358025,0,0,0.1358024691358025,102.9382716049383,0)" xlink:href="#av"/><use transform="matrix(0.1358024691358025,0,0,0.1358024691358025,130.0987654320988,0)" xlink:href="#at"/><use transform="matrix(0.1358024691358025,0,0,0.1358024691358025,157.2592592592593,0)" xlink:href="#am"/><use transform="matrix(0.1358024691358025,0,0,0.1358024691358025,170.83950617283955,0)" xlink:href="#ah"/><use transform="matrix(0.1358024691358025,0,0,0.1358024691358025,181.56790123456796,0)" xlink:href="#aj"/><use transform="matrix(0.1358024691358025,0,0,0.1358024691358025,208.72839506172846,0)" xlink:href="#ai"/></g><g id="u"><use transform="matrix(0.1358024691358025,0,0,0.1358024691358025,0,0)" xlink:href="#ak"/><use transform="matrix(0.1358024691358025,0,0,0.1358024691358025,40.604938271604944,0)" xlink:href="#az"/><use transform="matrix(0.1358024691358025,0,0,0.1358024691358025,67.76543209876544,0)" xlink:href="#aj"/><use transform="matrix(0.1358024691358025,0,0,0.1358024691358025,94.92592592592594,0)" xlink:href="#az"/><use transform="matrix(0.1358024691358025,0,0,0.1358024691358025,122.08641975308643,0)" xlink:href="#ai"/><use transform="matrix(0.1358024691358025,0,0,0.1358024691358025,149.24691358024694,0)" xlink:href="#al"/><use transform="matrix(0.1358024691358025,0,0,0.1358024691358025,176.40740740740745,0)" xlink:href="#aw"/></g><path d="M115-194c53 0 69 39 70 98 0 66-23 100-70 100C84 3 66-7 56-30L54 0H23l1-261h32v101c10-23 28-34 59-34zm-8 174c40 0 45-34 45-75 0-40-5-75-45-74-42 0-51 32-51 76 0 43 10 73 51 73" id="aT"/><path d="M179-190L93 31C79 59 56 82 12 73V49c39 6 53-20 64-50L1-190h34L92-34l54-156h33" id="aU"/><g id="v"><use transform="matrix(0.1358024691358025,0,0,0.1358024691358025,0,0)" xlink:href="#aT"/><use transform="matrix(0.1358024691358025,0,0,0.1358024691358025,27.160493827160497,0)" xlink:href="#aU"/></g><path d="M206 0h-36l-40-164L89 0H53L-1-190h32L70-26l43-164h34l41 164 42-164h31" id="aV"/><path d="M143 0L79-87 56-68V0H24v-261h32v163l83-92h37l-77 82L181 0h-38" id="aW"/><g id="w"><use transform="matrix(0.1358024691358025,0,0,0.1358024691358025,0,0)" xlink:href="#aV"/><use transform="matrix(0.1358024691358025,0,0,0.1358024691358025,35.17283950617284,0)" xlink:href="#an"/><use transform="matrix(0.1358024691358025,0,0,0.1358024691358025,62.33333333333334,0)" xlink:href="#as"/><use transform="matrix(0.1358024691358025,0,0,0.1358024691358025,78.49382716049384,0)" xlink:href="#aW"/><use transform="matrix(0.1358024691358025,0,0,0.1358024691358025,102.9382716049383,0)" xlink:href="#ag"/><use transform="matrix(0.1358024691358025,0,0,0.1358024691358025,113.66666666666667,0)" xlink:href="#an"/><use transform="matrix(0.1358024691358025,0,0,0.1358024691358025,140.82716049382714,0)" xlink:href="#az"/><use transform="matrix(0.1358024691358025,0,0,0.1358024691358025,167.98765432098767,0)" xlink:href="#aw"/></g><g id="x"><use transform="matrix(0.1358024691358025,0,0,0.1358024691358025,0,0)" xlink:href="#ak"/><use transform="matrix(0.1358024691358025,0,0,0.1358024691358025,40.604938271604944,0)" xlink:href="#az"/><use transform="matrix(0.1358024691358025,0,0,0.1358024691358025,67.76543209876544,0)" xlink:href="#aj"/><use transform="matrix(0.1358024691358025,0,0,0.1358024691358025,94.92592592592594,0)" xlink:href="#az"/><use transform="matrix(0.1358024691358025,0,0,0.1358024691358025,122.08641975308643,0)" xlink:href="#ai"/><use transform="matrix(0.1358024691358025,0,0,0.1358024691358025,149.24691358024694,0)" xlink:href="#al"/><use transform="matrix(0.1358024691358025,0,0,0.1358024691358025,176.40740740740745,0)" xlink:href="#as"/></g><g id="y"><use transform="matrix(0.07222222222222222,0,0,0.07222222222222222,0,0)" xlink:href="#ap"/><use transform="matrix(0.07222222222222222,0,0,0.07222222222222222,17.333333333333332,0)" xlink:href="#ag"/><use transform="matrix(0.07222222222222222,0,0,0.07222222222222222,23.038888888888888,0)" xlink:href="#an"/><use transform="matrix(0.07222222222222222,0,0,0.07222222222222222,37.48333333333334,0)" xlink:href="#am"/><use transform="matrix(0.07222222222222222,0,0,0.07222222222222222,44.70555555555556,0)" xlink:href="#ay"/></g><g id="z"><use transform="matrix(0.07222222222222222,0,0,0.07222222222222222,0,0)" xlink:href="#am"/><use transform="matrix(0.07222222222222222,0,0,0.07222222222222222,7.222222222222221,0)" xlink:href="#an"/></g><g id="A"><use transform="matrix(0.07222222222222222,0,0,0.07222222222222222,0,0)" xlink:href="#as"/><use transform="matrix(0.07222222222222222,0,0,0.07222222222222222,8.594444444444443,0)" xlink:href="#al"/><use transform="matrix(0.07222222222222222,0,0,0.07222222222222222,23.038888888888884,0)" xlink:href="#av"/><use transform="matrix(0.07222222222222222,0,0,0.07222222222222222,37.48333333333333,0)" xlink:href="#as"/><use transform="matrix(0.07222222222222222,0,0,0.07222222222222222,46.07777777777777,0)" xlink:href="#al"/><use transform="matrix(0.07222222222222222,0,0,0.07222222222222222,60.52222222222221,0)" xlink:href="#ay"/><use transform="matrix(0.07222222222222222,0,0,0.07222222222222222,73.52222222222221,0)" xlink:href="#al"/><use transform="matrix(0.07222222222222222,0,0,0.07222222222222222,87.96666666666665,0)" xlink:href="#aj"/><use transform="matrix(0.07222222222222222,0,0,0.07222222222222222,102.4111111111111,0)" xlink:href="#am"/></g><path d="M106-169C34-169 62-67 57 0H25v-261h32l-1 103c12-21 28-36 61-36 89 0 53 116 60 194h-32v-121c2-32-8-49-39-48" id="aX"/><g id="B"><use transform="matrix(0.07222222222222222,0,0,0.07222222222222222,0,0)" xlink:href="#am"/><use transform="matrix(0.07222222222222222,0,0,0.07222222222222222,7.222222222222221,0)" xlink:href="#aX"/><use transform="matrix(0.07222222222222222,0,0,0.07222222222222222,21.666666666666664,0)" xlink:href="#al"/></g><g id="C"><use transform="matrix(0.07222222222222222,0,0,0.07222222222222222,0,0)" xlink:href="#as"/><use transform="matrix(0.07222222222222222,0,0,0.07222222222222222,8.594444444444443,0)" xlink:href="#at"/><use transform="matrix(0.07222222222222222,0,0,0.07222222222222222,23.038888888888884,0)" xlink:href="#aj"/></g><path d="M101-234c-31-9-42 10-38 44h38v23H63V0H32v-167H5v-23h27c-7-52 17-82 69-68v24" id="aY"/><g id="D"><use transform="matrix(0.07222222222222222,0,0,0.07222222222222222,0,0)" xlink:href="#av"/><use transform="matrix(0.07222222222222222,0,0,0.07222222222222222,14.444444444444443,0)" xlink:href="#al"/><use transform="matrix(0.07222222222222222,0,0,0.07222222222222222,28.888888888888886,0)" xlink:href="#as"/><use transform="matrix(0.07222222222222222,0,0,0.07222222222222222,37.48333333333333,0)" xlink:href="#aY"/><use transform="matrix(0.07222222222222222,0,0,0.07222222222222222,44.70555555555555,0)" xlink:href="#an"/><use transform="matrix(0.07222222222222222,0,0,0.07222222222222222,59.14999999999999,0)" xlink:href="#as"/><use transform="matrix(0.07222222222222222,0,0,0.07222222222222222,67.74444444444444,0)" xlink:href="#ak"/><use transform="matrix(0.07222222222222222,0,0,0.07222222222222222,89.33888888888887,0)" xlink:href="#az"/><use transform="matrix(0.07222222222222222,0,0,0.07222222222222222,103.78333333333332,0)" xlink:href="#aj"/><use transform="matrix(0.07222222222222222,0,0,0.07222222222222222,118.22777777777776,0)" xlink:href="#au"/><use transform="matrix(0.07222222222222222,0,0,0.07222222222222222,131.22777777777776,0)" xlink:href="#al"/><use transform="matrix(0.07222222222222222,0,0,0.07222222222222222,145.67222222222222,0)" xlink:href="#ay"/></g><g id="E"><use transform="matrix(0.07222222222222222,0,0,0.07222222222222222,0,0)" xlink:href="#aq"/><use transform="matrix(0.07222222222222222,0,0,0.07222222222222222,18.705555555555552,0)" xlink:href="#aj"/><use transform="matrix(0.07222222222222222,0,0,0.07222222222222222,33.14999999999999,0)" xlink:href="#ah"/><use transform="matrix(0.07222222222222222,0,0,0.07222222222222222,38.85555555555555,0)" xlink:href="#aY"/><use transform="matrix(0.07222222222222222,0,0,0.07222222222222222,46.07777777777777,0)" xlink:href="#ah"/><use transform="matrix(0.07222222222222222,0,0,0.07222222222222222,51.78333333333332,0)" xlink:href="#al"/><use transform="matrix(0.07222222222222222,0,0,0.07222222222222222,66.22777777777776,0)" xlink:href="#aw"/></g><g id="F"><use transform="matrix(0.07222222222222222,0,0,0.07222222222222222,0,0)" xlink:href="#an"/><use transform="matrix(0.07222222222222222,0,0,0.07222222222222222,14.444444444444443,0)" xlink:href="#at"/><use transform="matrix(0.07222222222222222,0,0,0.07222222222222222,28.888888888888886,0)" xlink:href="#am"/><use transform="matrix(0.07222222222222222,0,0,0.07222222222222222,36.11111111111111,0)" xlink:href="#av"/><use transform="matrix(0.07222222222222222,0,0,0.07222222222222222,50.55555555555555,0)" xlink:href="#at"/><use transform="matrix(0.07222222222222222,0,0,0.07222222222222222,65,0)" xlink:href="#am"/></g><g id="G"><use transform="matrix(0.07222222222222222,0,0,0.07222222222222222,0,0)" xlink:href="#aY"/><use transform="matrix(0.07222222222222222,0,0,0.07222222222222222,7.222222222222221,0)" xlink:href="#as"/><use transform="matrix(0.07222222222222222,0,0,0.07222222222222222,15.816666666666665,0)" xlink:href="#an"/><use transform="matrix(0.07222222222222222,0,0,0.07222222222222222,30.261111111111106,0)" xlink:href="#ak"/></g><g id="H"><use transform="matrix(0.07222222222222222,0,0,0.07222222222222222,0,0)" xlink:href="#az"/><use transform="matrix(0.07222222222222222,0,0,0.07222222222222222,14.444444444444443,0)" xlink:href="#ag"/><use transform="matrix(0.07222222222222222,0,0,0.07222222222222222,20.15,0)" xlink:href="#ag"/></g><g id="I"><use transform="matrix(0.07222222222222222,0,0,0.07222222222222222,0,0)" xlink:href="#aT"/><use transform="matrix(0.07222222222222222,0,0,0.07222222222222222,14.444444444444443,0)" xlink:href="#az"/><use transform="matrix(0.07222222222222222,0,0,0.07222222222222222,28.888888888888886,0)" xlink:href="#am"/><use transform="matrix(0.07222222222222222,0,0,0.07222222222222222,36.11111111111111,0)" xlink:href="#au"/><use transform="matrix(0.07222222222222222,0,0,0.07222222222222222,49.11111111111111,0)" xlink:href="#aX"/><use transform="matrix(0.07222222222222222,0,0,0.07222222222222222,63.55555555555555,0)" xlink:href="#al"/><use transform="matrix(0.07222222222222222,0,0,0.07222222222222222,77.99999999999999,0)" xlink:href="#ay"/></g><g id="J"><use transform="matrix(0.07222222222222222,0,0,0.07222222222222222,0,0)" xlink:href="#an"/><use transform="matrix(0.07222222222222222,0,0,0.07222222222222222,14.444444444444443,0)" xlink:href="#at"/><use transform="matrix(0.07222222222222222,0,0,0.07222222222222222,28.888888888888886,0)" xlink:href="#am"/><use transform="matrix(0.07222222222222222,0,0,0.07222222222222222,36.11111111111111,0)" xlink:href="#av"/><use transform="matrix(0.07222222222222222,0,0,0.07222222222222222,50.55555555555555,0)" xlink:href="#at"/><use transform="matrix(0.07222222222222222,0,0,0.07222222222222222,65,0)" xlink:href="#am"/><use transform="matrix(0.07222222222222222,0,0,0.07222222222222222,72.22222222222223,0)" xlink:href="#ay"/></g><g id="K"><use transform="matrix(0.07222222222222222,0,0,0.07222222222222222,0,0)" xlink:href="#ap"/><use transform="matrix(0.07222222222222222,0,0,0.07222222222222222,17.333333333333332,0)" xlink:href="#as"/><use transform="matrix(0.07222222222222222,0,0,0.07222222222222222,25.927777777777774,0)" xlink:href="#al"/><use transform="matrix(0.07222222222222222,0,0,0.07222222222222222,40.37222222222222,0)" xlink:href="#aw"/><use transform="matrix(0.07222222222222222,0,0,0.07222222222222222,54.81666666666666,0)" xlink:href="#ah"/><use transform="matrix(0.07222222222222222,0,0,0.07222222222222222,60.52222222222222,0)" xlink:href="#au"/><use transform="matrix(0.07222222222222222,0,0,0.07222222222222222,73.52222222222221,0)" xlink:href="#am"/><use transform="matrix(0.07222222222222222,0,0,0.07222222222222222,80.74444444444444,0)" xlink:href="#ah"/><use transform="matrix(0.07222222222222222,0,0,0.07222222222222222,86.44999999999999,0)" xlink:href="#an"/><use transform="matrix(0.07222222222222222,0,0,0.07222222222222222,100.89444444444443,0)" xlink:href="#aj"/><use transform="matrix(0.07222222222222222,0,0,0.07222222222222222,115.33888888888887,0)" xlink:href="#ay"/></g><g id="L"><use transform="matrix(0.07222222222222222,0,0,0.07222222222222222,0,0)" xlink:href="#as"/><use transform="matrix(0.07222222222222222,0,0,0.07222222222222222,8.594444444444443,0)" xlink:href="#az"/><use transform="matrix(0.07222222222222222,0,0,0.07222222222222222,23.038888888888884,0)" xlink:href="#aj"/><use transform="matrix(0.07222222222222222,0,0,0.07222222222222222,37.48333333333333,0)" xlink:href="#aW"/><use transform="matrix(0.07222222222222222,0,0,0.07222222222222222,50.48333333333333,0)" xlink:href="#ah"/><use transform="matrix(0.07222222222222222,0,0,0.07222222222222222,56.18888888888888,0)" xlink:href="#aj"/><use transform="matrix(0.07222222222222222,0,0,0.07222222222222222,70.63333333333333,0)" xlink:href="#ai"/><use transform="matrix(0.07222222222222222,0,0,0.07222222222222222,85.07777777777777,0)" xlink:href="#ay"/></g><path d="M68-38c1 34 0 65-14 84H32c9-13 17-26 17-46H33v-38h35" id="aZ"/><g id="M"><use transform="matrix(0.07222222222222222,0,0,0.07222222222222222,0,0)" xlink:href="#aN"/><use transform="matrix(0.07222222222222222,0,0,0.07222222222222222,8.594444444444443,0)" xlink:href="#au"/><use transform="matrix(0.07222222222222222,0,0,0.07222222222222222,21.59444444444444,0)" xlink:href="#an"/><use transform="matrix(0.07222222222222222,0,0,0.07222222222222222,36.038888888888884,0)" xlink:href="#aj"/><use transform="matrix(0.07222222222222222,0,0,0.07222222222222222,50.48333333333333,0)" xlink:href="#aY"/><use transform="matrix(0.07222222222222222,0,0,0.07222222222222222,57.70555555555555,0)" xlink:href="#ah"/><use transform="matrix(0.07222222222222222,0,0,0.07222222222222222,63.411111111111104,0)" xlink:href="#aw"/><use transform="matrix(0.07222222222222222,0,0,0.07222222222222222,77.85555555555555,0)" xlink:href="#al"/><use transform="matrix(0.07222222222222222,0,0,0.07222222222222222,92.3,0)" xlink:href="#aj"/><use transform="matrix(0.07222222222222222,0,0,0.07222222222222222,106.74444444444444,0)" xlink:href="#au"/><use transform="matrix(0.07222222222222222,0,0,0.07222222222222222,119.74444444444444,0)" xlink:href="#al"/><use transform="matrix(0.07222222222222222,0,0,0.07222222222222222,134.18888888888887,0)" xlink:href="#aZ"/></g><g id="N"><use transform="matrix(0.07222222222222222,0,0,0.07222222222222222,0,0)" xlink:href="#ah"/><use transform="matrix(0.07222222222222222,0,0,0.07222222222222222,5.705555555555555,0)" xlink:href="#av"/><use transform="matrix(0.07222222222222222,0,0,0.07222222222222222,20.15,0)" xlink:href="#am"/><use transform="matrix(0.07222222222222222,0,0,0.07222222222222222,27.37222222222222,0)" xlink:href="#ak"/></g><g id="O"><use transform="matrix(0.07222222222222222,0,0,0.07222222222222222,0,0)" xlink:href="#az"/><use transform="matrix(0.07222222222222222,0,0,0.07222222222222222,14.444444444444443,0)" xlink:href="#aj"/><use transform="matrix(0.07222222222222222,0,0,0.07222222222222222,28.888888888888886,0)" xlink:href="#aw"/></g><g id="P"><use transform="matrix(0.07222222222222222,0,0,0.07222222222222222,0,0)" xlink:href="#av"/><use transform="matrix(0.07222222222222222,0,0,0.07222222222222222,14.444444444444443,0)" xlink:href="#am"/><use transform="matrix(0.07222222222222222,0,0,0.07222222222222222,21.666666666666664,0)" xlink:href="#ak"/><use transform="matrix(0.07222222222222222,0,0,0.07222222222222222,43.261111111111106,0)" xlink:href="#aO"/></g><path d="M140-251c81 0 123 46 123 126C263-46 219 4 140 4 59 4 17-45 17-125s42-126 123-126zm0 227c63 0 89-41 89-101s-29-99-89-99c-61 0-89 39-89 99S79-25 140-24" id="ba"/><g id="Q"><use transform="matrix(0.1358024691358025,0,0,0.1358024691358025,0,0)" xlink:href="#ba"/><use transform="matrix(0.1358024691358025,0,0,0.1358024691358025,38.0246913580247,0)" xlink:href="#at"/><use transform="matrix(0.1358024691358025,0,0,0.1358024691358025,65.18518518518519,0)" xlink:href="#am"/><use transform="matrix(0.1358024691358025,0,0,0.1358024691358025,78.76543209876544,0)" xlink:href="#av"/><use transform="matrix(0.1358024691358025,0,0,0.1358024691358025,105.92592592592594,0)" xlink:href="#at"/><use transform="matrix(0.1358024691358025,0,0,0.1358024691358025,133.08641975308643,0)" xlink:href="#am"/></g><path fill="#fff" d="M240 0l2-218c-23 76-54 145-80 218h-23L58-218 59 0H30v-248h44l77 211c21-75 51-140 76-211h43V0h-30" id="bb"/><path fill="#fff" d="M135-143c-3-34-86-38-87 0 15 53 115 12 119 90S17 21 10-45l28-5c4 36 97 45 98 0-10-56-113-15-118-90-4-57 82-63 122-42 12 7 21 19 24 35" id="bc"/><path fill="#fff" d="M24-231v-30h32v30H24zM24 0v-190h32V0H24" id="bd"/><path fill="#fff" d="M108 0H70L1-190h34L89-25l56-165h34" id="be"/><path fill="#fff" d="M100-194c63 0 86 42 84 106H49c0 40 14 67 53 68 26 1 43-12 49-29l28 8c-11 28-37 45-77 45C44 4 14-33 15-96c1-61 26-98 85-98zm52 81c6-60-76-77-97-28-3 7-6 17-6 28h103" id="bf"/><g id="R"><use transform="matrix(0.07222222222222222,0,0,0.07222222222222222,0,0)" xlink:href="#bb"/><use transform="matrix(0.07222222222222222,0,0,0.07222222222222222,21.59444444444444,0)" xlink:href="#aB"/><use transform="matrix(0.07222222222222222,0,0,0.07222222222222222,36.038888888888884,0)" xlink:href="#bc"/><use transform="matrix(0.07222222222222222,0,0,0.07222222222222222,49.038888888888884,0)" xlink:href="#bc"/><use transform="matrix(0.07222222222222222,0,0,0.07222222222222222,62.038888888888884,0)" xlink:href="#bd"/><use transform="matrix(0.07222222222222222,0,0,0.07222222222222222,67.74444444444444,0)" xlink:href="#be"/><use transform="matrix(0.07222222222222222,0,0,0.07222222222222222,80.74444444444444,0)" xlink:href="#bf"/></g><path fill="#fff" d="M210-169c-67 3-38 105-44 169h-31v-121c0-29-5-50-35-48C34-165 62-65 56 0H25l-1-190h30c1 10-1 24 2 32 10-44 99-50 107 0 11-21 27-35 58-36 85-2 47 119 55 194h-31v-121c0-29-5-49-35-48" id="bg"/><path fill="#fff" d="M115-194c55 1 70 41 70 98S169 2 115 4C84 4 66-9 55-30l1 105H24l-1-265h31l2 30c10-21 28-34 59-34zm-8 174c40 0 45-34 45-75s-6-73-45-74c-42 0-51 32-51 76 0 43 10 73 51 73" id="bh"/><path fill="#fff" d="M24 0v-261h32V0H24" id="bi"/><path fill="#fff" d="M177-190C167-65 218 103 67 71c-23-6-38-20-44-43l32-5c15 47 100 32 89-28v-30C133-14 115 1 83 1 29 1 15-40 15-95c0-56 16-97 71-98 29-1 48 16 59 35 1-10 0-23 2-32h30zM94-22c36 0 50-32 50-73 0-42-14-75-50-75-39 0-46 34-46 75s6 73 46 73" id="bj"/><g id="S"><use transform="matrix(0.07222222222222222,0,0,0.07222222222222222,0,0)" xlink:href="#bc"/><use transform="matrix(0.07222222222222222,0,0,0.07222222222222222,12.999999999999998,0)" xlink:href="#aB"/><use transform="matrix(0.07222222222222222,0,0,0.07222222222222222,27.444444444444443,0)" xlink:href="#bg"/><use transform="matrix(0.07222222222222222,0,0,0.07222222222222222,49.038888888888884,0)" xlink:href="#bh"/><use transform="matrix(0.07222222222222222,0,0,0.07222222222222222,63.48333333333333,0)" xlink:href="#bi"/><use transform="matrix(0.07222222222222222,0,0,0.07222222222222222,69.18888888888888,0)" xlink:href="#bd"/><use transform="matrix(0.07222222222222222,0,0,0.07222222222222222,74.89444444444443,0)" xlink:href="#aJ"/><use transform="matrix(0.07222222222222222,0,0,0.07222222222222222,89.33888888888887,0)" xlink:href="#bj"/></g><path fill="#fff" d="M101-234c-31-9-42 10-38 44h38v23H63V0H32v-167H5v-23h27c-7-52 17-82 69-68v24" id="bk"/><path fill="#fff" d="M100-194c62-1 85 37 85 99 1 63-27 99-86 99S16-35 15-95c0-66 28-99 85-99zM99-20c44 1 53-31 53-75 0-43-8-75-51-75s-53 32-53 75 10 74 51 75" id="bl"/><path fill="#fff" d="M114-163C36-179 61-72 57 0H25l-1-190h30c1 12-1 29 2 39 6-27 23-49 58-41v29" id="bm"/><g id="T"><use transform="matrix(0.07222222222222222,0,0,0.07222222222222222,0,0)" xlink:href="#bk"/><use transform="matrix(0.07222222222222222,0,0,0.07222222222222222,7.222222222222221,0)" xlink:href="#bl"/><use transform="matrix(0.07222222222222222,0,0,0.07222222222222222,21.666666666666664,0)" xlink:href="#bm"/></g><path fill="#fff" d="M84 4C-5 8 30-112 23-190h32v120c0 31 7 50 39 49 72-2 45-101 50-169h31l1 190h-30c-1-10 1-25-2-33-11 22-28 36-60 37" id="bn"/><g id="U"><use transform="matrix(0.07222222222222222,0,0,0.07222222222222222,0,0)" xlink:href="#bc"/><use transform="matrix(0.07222222222222222,0,0,0.07222222222222222,12.999999999999998,0)" xlink:href="#aC"/><use transform="matrix(0.07222222222222222,0,0,0.07222222222222222,20.22222222222222,0)" xlink:href="#bm"/><use transform="matrix(0.07222222222222222,0,0,0.07222222222222222,28.816666666666663,0)" xlink:href="#bn"/><use transform="matrix(0.07222222222222222,0,0,0.07222222222222222,43.261111111111106,0)" xlink:href="#aD"/><use transform="matrix(0.07222222222222222,0,0,0.07222222222222222,56.261111111111106,0)" xlink:href="#aC"/><use transform="matrix(0.07222222222222222,0,0,0.07222222222222222,63.48333333333333,0)" xlink:href="#bn"/><use transform="matrix(0.07222222222222222,0,0,0.07222222222222222,77.92777777777778,0)" xlink:href="#bm"/><use transform="matrix(0.07222222222222222,0,0,0.07222222222222222,86.52222222222223,0)" xlink:href="#bf"/></g><path fill="#fff" d="M85-194c31 0 48 13 60 33l-1-100h32l1 261h-30c-2-10 0-23-3-31C134-8 116 4 85 4 32 4 16-35 15-94c0-66 23-100 70-100zm9 24c-40 0-46 34-46 75 0 40 6 74 45 74 42 0 51-32 51-76 0-42-9-74-50-73" id="bo"/><g id="V"><use transform="matrix(0.07222222222222222,0,0,0.07222222222222222,0,0)" xlink:href="#bh"/><use transform="matrix(0.07222222222222222,0,0,0.07222222222222222,14.444444444444443,0)" xlink:href="#bm"/><use transform="matrix(0.07222222222222222,0,0,0.07222222222222222,23.038888888888884,0)" xlink:href="#bf"/><use transform="matrix(0.07222222222222222,0,0,0.07222222222222222,37.48333333333333,0)" xlink:href="#bo"/><use transform="matrix(0.07222222222222222,0,0,0.07222222222222222,51.92777777777777,0)" xlink:href="#bd"/><use transform="matrix(0.07222222222222222,0,0,0.07222222222222222,57.633333333333326,0)" xlink:href="#aD"/><use transform="matrix(0.07222222222222222,0,0,0.07222222222222222,70.63333333333333,0)" xlink:href="#aC"/><use transform="matrix(0.07222222222222222,0,0,0.07222222222222222,77.85555555555555,0)" xlink:href="#bd"/><use transform="matrix(0.07222222222222222,0,0,0.07222222222222222,83.5611111111111,0)" xlink:href="#bl"/><use transform="matrix(0.07222222222222222,0,0,0.07222222222222222,98.00555555555555,0)" xlink:href="#aJ"/></g><path d="M30-248c118-7 216 8 213 122C240-48 200 0 122 0H30v-248zM63-27c89 8 146-16 146-99s-60-101-146-95v194" id="bp"/><path d="M108 0H70L1-190h34L89-25l56-165h34" id="bq"/><g id="W"><use transform="matrix(0.07222222222222222,0,0,0.07222222222222222,0,0)" xlink:href="#bp"/><use transform="matrix(0.07222222222222222,0,0,0.07222222222222222,18.705555555555552,0)" xlink:href="#ah"/><use transform="matrix(0.07222222222222222,0,0,0.07222222222222222,24.411111111111108,0)" xlink:href="#bq"/><use transform="matrix(0.07222222222222222,0,0,0.07222222222222222,37.411111111111104,0)" xlink:href="#ah"/><use transform="matrix(0.07222222222222222,0,0,0.07222222222222222,43.11666666666666,0)" xlink:href="#ay"/><use transform="matrix(0.07222222222222222,0,0,0.07222222222222222,56.11666666666666,0)" xlink:href="#ah"/><use transform="matrix(0.07222222222222222,0,0,0.07222222222222222,61.822222222222216,0)" xlink:href="#an"/><use transform="matrix(0.07222222222222222,0,0,0.07222222222222222,76.26666666666667,0)" xlink:href="#aj"/></g><g id="X"><use transform="matrix(0.07222222222222222,0,0,0.07222222222222222,0,0)" xlink:href="#ah"/><use transform="matrix(0.07222222222222222,0,0,0.07222222222222222,5.705555555555555,0)" xlink:href="#aj"/></g><g id="Y"><use transform="matrix(0.07222222222222222,0,0,0.07222222222222222,0,0)" xlink:href="#aT"/><use transform="matrix(0.07222222222222222,0,0,0.07222222222222222,14.444444444444443,0)" xlink:href="#az"/><use transform="matrix(0.07222222222222222,0,0,0.07222222222222222,28.888888888888886,0)" xlink:href="#am"/><use transform="matrix(0.07222222222222222,0,0,0.07222222222222222,36.11111111111111,0)" xlink:href="#au"/><use transform="matrix(0.07222222222222222,0,0,0.07222222222222222,49.11111111111111,0)" xlink:href="#aX"/><use transform="matrix(0.07222222222222222,0,0,0.07222222222222222,63.55555555555555,0)" xlink:href="#al"/><use transform="matrix(0.07222222222222222,0,0,0.07222222222222222,77.99999999999999,0)" xlink:href="#ay"/></g><g id="Z"><use transform="matrix(0.08641975308641975,0,0,0.08641975308641975,0,0)" xlink:href="#af"/><use transform="matrix(0.08641975308641975,0,0,0.08641975308641975,20.74074074074074,0)" xlink:href="#aK"/><use transform="matrix(0.08641975308641975,0,0,0.08641975308641975,39.666666666666664,0)" xlink:href="#ak"/><use transform="matrix(0.08641975308641975,0,0,0.08641975308641975,65.50617283950618,0)" xlink:href="#az"/><use transform="matrix(0.08641975308641975,0,0,0.08641975308641975,82.79012345679013,0)" xlink:href="#ay"/><use transform="matrix(0.08641975308641975,0,0,0.08641975308641975,98.3456790123457,0)" xlink:href="#ay"/><use transform="matrix(0.08641975308641975,0,0,0.08641975308641975,113.90123456790124,0)" xlink:href="#ah"/><use transform="matrix(0.08641975308641975,0,0,0.08641975308641975,120.7283950617284,0)" xlink:href="#bq"/><use transform="matrix(0.08641975308641975,0,0,0.08641975308641975,136.28395061728395,0)" xlink:href="#al"/><use transform="matrix(0.08641975308641975,0,0,0.08641975308641975,153.5679012345679,0)" xlink:href="#aZ"/></g><g id="aa"><use transform="matrix(0.08641975308641975,0,0,0.08641975308641975,0,0)" xlink:href="#ao"/><use transform="matrix(0.08641975308641975,0,0,0.08641975308641975,22.382716049382715,0)" xlink:href="#an"/><use transform="matrix(0.08641975308641975,0,0,0.08641975308641975,39.666666666666664,0)" xlink:href="#ag"/><use transform="matrix(0.08641975308641975,0,0,0.08641975308641975,46.49382716049382,0)" xlink:href="#az"/><use transform="matrix(0.08641975308641975,0,0,0.08641975308641975,63.77777777777777,0)" xlink:href="#aT"/><use transform="matrix(0.08641975308641975,0,0,0.08641975308641975,81.06172839506172,0)" xlink:href="#aK"/><use transform="matrix(0.08641975308641975,0,0,0.08641975308641975,99.98765432098764,0)" xlink:href="#an"/><use transform="matrix(0.08641975308641975,0,0,0.08641975308641975,117.2716049382716,0)" xlink:href="#ag"/><use transform="matrix(0.08641975308641975,0,0,0.08641975308641975,124.09876543209876,0)" xlink:href="#aw"/><use transform="matrix(0.08641975308641975,0,0,0.08641975308641975,141.3827160493827,0)" xlink:href="#aZ"/></g><path d="M126-127c33 6 58 20 58 59 0 88-139 92-164 29-3-8-5-16-6-25l32-3c6 27 21 44 54 44 32 0 52-15 52-46 0-38-36-46-79-43v-28c39 1 72-4 72-42 0-27-17-43-46-43-28 0-47 15-49 41l-32-3c6-42 35-63 81-64 48-1 79 21 79 65 0 36-21 52-52 59" id="br"/><g id="ab"><use transform="matrix(0.08641975308641975,0,0,0.08641975308641975,0,0)" xlink:href="#af"/><use transform="matrix(0.08641975308641975,0,0,0.08641975308641975,20.74074074074074,0)" xlink:href="#ag"/><use transform="matrix(0.08641975308641975,0,0,0.08641975308641975,27.5679012345679,0)" xlink:href="#av"/><use transform="matrix(0.08641975308641975,0,0,0.08641975308641975,44.85185185185185,0)" xlink:href="#aX"/><use transform="matrix(0.08641975308641975,0,0,0.08641975308641975,62.1358024691358,0)" xlink:href="#az"/><use transform="matrix(0.08641975308641975,0,0,0.08641975308641975,79.41975308641975,0)" xlink:href="#aK"/><use transform="matrix(0.08641975308641975,0,0,0.08641975308641975,98.34567901234567,0)" xlink:href="#an"/><use transform="matrix(0.08641975308641975,0,0,0.08641975308641975,115.62962962962962,0)" xlink:href="#ag"/><use transform="matrix(0.08641975308641975,0,0,0.08641975308641975,122.45679012345678,0)" xlink:href="#aw"/><use transform="matrix(0.08641975308641975,0,0,0.08641975308641975,139.74074074074073,0)" xlink:href="#br"/></g><path d="M30 0v-248h187v28H63v79h144v27H63v87h162V0H30" id="bs"/><path d="M240 0l2-218c-23 76-54 145-80 218h-23L58-218 59 0H30v-248h44l77 211c21-75 51-140 76-211h43V0h-30" id="bt"/><path d="M101-251c82-7 93 87 43 132L82-64C71-53 59-42 53-27h129V0H18c2-99 128-94 128-182 0-28-16-43-45-43s-46 15-49 41l-32-3c6-41 34-60 81-64" id="bu"/><g id="ac"><use transform="matrix(0.08641975308641975,0,0,0.08641975308641975,0,0)" xlink:href="#aN"/><use transform="matrix(0.08641975308641975,0,0,0.08641975308641975,10.28395061728395,0)" xlink:href="#bs"/><use transform="matrix(0.08641975308641975,0,0,0.08641975308641975,31.02469135802469,0)" xlink:href="#ar"/><use transform="matrix(0.08641975308641975,0,0,0.08641975308641975,51.76543209876543,0)" xlink:href="#bt"/><use transform="matrix(0.08641975308641975,0,0,0.08641975308641975,77.60493827160494,0)" xlink:href="#aK"/><use transform="matrix(0.08641975308641975,0,0,0.08641975308641975,96.53086419753086,0)" xlink:href="#an"/><use transform="matrix(0.08641975308641975,0,0,0.08641975308641975,113.81481481481481,0)" xlink:href="#ag"/><use transform="matrix(0.08641975308641975,0,0,0.08641975308641975,120.64197530864197,0)" xlink:href="#aw"/><use transform="matrix(0.08641975308641975,0,0,0.08641975308641975,137.92592592592592,0)" xlink:href="#bu"/></g><g id="ad"><use transform="matrix(0.08641975308641975,0,0,0.08641975308641975,0,0)" xlink:href="#au"/><use transform="matrix(0.08641975308641975,0,0,0.08641975308641975,15.555555555555555,0)" xlink:href="#an"/><use transform="matrix(0.08641975308641975,0,0,0.08641975308641975,32.839506172839506,0)" xlink:href="#ak"/><use transform="matrix(0.08641975308641975,0,0,0.08641975308641975,58.679012345679006,0)" xlink:href="#ah"/><use transform="matrix(0.08641975308641975,0,0,0.08641975308641975,65.50617283950618,0)" xlink:href="#aj"/><use transform="matrix(0.08641975308641975,0,0,0.08641975308641975,82.79012345679013,0)" xlink:href="#ai"/></g><path d="M33 0v-38h34V0H33" id="bv"/><g id="ae"><use transform="matrix(0.08641975308641975,0,0,0.08641975308641975,0,0)" xlink:href="#ay"/><use transform="matrix(0.08641975308641975,0,0,0.08641975308641975,15.555555555555555,0)" xlink:href="#an"/><use transform="matrix(0.08641975308641975,0,0,0.08641975308641975,32.839506172839506,0)" xlink:href="#an"/><use transform="matrix(0.08641975308641975,0,0,0.08641975308641975,50.123456790123456,0)" xlink:href="#aj"/><use transform="matrix(0.08641975308641975,0,0,0.08641975308641975,67.4074074074074,0)" xlink:href="#bv"/><use transform="matrix(0.08641975308641975,0,0,0.08641975308641975,76.04938271604938,0)" xlink:href="#bv"/><use transform="matrix(0.08641975308641975,0,0,0.08641975308641975,84.69135802469135,0)" xlink:href="#bv"/><use transform="matrix(0.08641975308641975,0,0,0.08641975308641975,93.33333333333333,0)" xlink:href="#aO"/></g></defs></g></svg>