<svg xmlns="http://www.w3.org/2000/svg" xmlns:xlink="http://www.w3.org/1999/xlink" xmlns:lucid="lucid" width="1808" height="784"><g transform="translate(-14 0)" lucid:page-tab-id="0_0"><path d="M414.75 67.34a26 26 0 0 1 26-26h949.8a26 26 0 0 1 26 26v577.42a26 26 0 0 1-26 26h-949.8a26 26 0 0 1-26-26z" stroke="#9391ff" stroke-width="5" fill-opacity="0"/><path d="M43.6 304.05a26 26 0 0 1 26-26h276a26 26 0 0 1 26 26V575.7a26 26 0 0 1-26 26h-276a26 26 0 0 1-26-26z" stroke="#648cd9" stroke-width="5" fill-opacity="0"/><path d="M1452.04 186.16a26 26 0 0 1 26-26h288.7a26 26 0 0 1 26 26v490.06a26 26 0 0 1-26 26h-288.7a26 26 0 0 1-26-26z" stroke="#f8b384" stroke-width="5" fill-opacity="0"/><path d="M448.6 377.88a6 6 0 0 1 6-6h273.34a6 6 0 0 1 6 6v122.67a6 6 0 0 1-6 6H454.6a6 6 0 0 1-6-6z" stroke="#3a414a" stroke-width="3" fill="#8c52ff"/><use xlink:href="#a" transform="matrix(1,0,0,1,462.8697035430224,378.6137888647865) translate(65.12500000000001 51.3)"/><use xlink:href="#b" transform="matrix(1,0,0,1,462.8697035430224,378.6137888647865) translate(83.07222222222222 82.5)"/><use xlink:href="#c" transform="matrix(1,0,0,1,462.8697035430224,378.6137888647865) translate(119.18333333333334 82.5)"/><path d="M777.03 377.88a6 6 0 0 1 6-6h273.34a6 6 0 0 1 6 6v122.67a6 6 0 0 1-6 6H783.03a6 6 0 0 1-6-6z" stroke="#3a414a" stroke-width="3" fill="#cb6ce6"/><use xlink:href="#d" transform="matrix(1,0,0,1,791.2992046276212,378.6137888647868) translate(4.6027777777777885 51.3)"/><use xlink:href="#e" transform="matrix(1,0,0,1,791.2992046276212,378.6137888647868) translate(127.09166666666667 51.3)"/><use xlink:href="#b" transform="matrix(1,0,0,1,791.2992046276212,378.6137888647868) translate(82.3138888888889 82.5)"/><use xlink:href="#f" transform="matrix(1,0,0,1,791.2992046276212,378.6137888647868) translate(118.42500000000001 82.5)"/><path d="M1105.46 377.88a6 6 0 0 1 6-6h273.34a6 6 0 0 1 6 6v122.67a6 6 0 0 1-6 6h-273.34a6 6 0 0 1-6-6z" stroke="#3a414a" stroke-width="3" fill="#8c52ff"/><use xlink:href="#g" transform="matrix(1,0,0,1,1119.7287057122196,378.6137888647865) translate(37.71666666666668 51.3)"/><use xlink:href="#h" transform="matrix(1,0,0,1,1119.7287057122196,378.6137888647865) translate(101.1277777777778 51.3)"/><use xlink:href="#i" transform="matrix(1,0,0,1,1119.7287057122196,378.6137888647865) translate(83.07222222222222 82.5)"/><use xlink:href="#j" transform="matrix(1,0,0,1,1119.7287057122196,378.6137888647865) translate(119.18333333333334 82.5)"/><path d="M670.8 86.16a6 6 0 0 1 6-6h72a6 6 0 0 1 6 6v68a6 6 0 0 1-6 6h-72a6 6 0 0 1-6-6z" stroke="#3a414a" stroke-width="3" fill="#979ea8"/><use xlink:href="#k" transform="matrix(1,0,0,1,675.0113702096893,84.15835140997855) translate(4.777777777777779 25.3625)"/><use xlink:href="#l" transform="matrix(1,0,0,1,675.0113702096893,84.15835140997855) translate(30.77777777777778 56.5625)"/><path d="M778.4 86.16a6 6 0 0 1 6-6h72a6 6 0 0 1 6 6v68a6 6 0 0 1-6 6h-72a6 6 0 0 1-6-6z" stroke="#3a414a" stroke-width="3" fill="#979ea8"/><use xlink:href="#k" transform="matrix(1,0,0,1,782.6003099893065,84.15835140997855) translate(4.777777777777779 25.3625)"/><use xlink:href="#m" transform="matrix(1,0,0,1,782.6003099893065,84.15835140997855) translate(30.77777777777778 56.5625)"/><path d="M886 86.16a6 6 0 0 1 6-6h72a6 6 0 0 1 6 6v68a6 6 0 0 1-6 6h-72a6 6 0 0 1-6-6z" stroke="#3a414a" stroke-width="3" fill="#979ea8"/><use xlink:href="#k" transform="matrix(1,0,0,1,890.1892497689238,84.15835140997855) translate(4.777777777777779 25.3625)"/><use xlink:href="#n" transform="matrix(1,0,0,1,890.1892497689238,84.15835140997855) translate(30.77777777777778 56.5625)"/><path d="M993.58 86.16a6 6 0 0 1 6-6h72a6 6 0 0 1 6 6v68a6 6 0 0 1-6 6h-72a6 6 0 0 1-6-6z" stroke="#3a414a" stroke-width="3" fill="#979ea8"/><use xlink:href="#o" transform="matrix(1,0,0,1,997.7781895485411,84.15835140997855) translate(16.333333333333336 41.33125)"/><path d="M1101.17 86.16a6 6 0 0 1 6-6h72a6 6 0 0 1 6 6v68a6 6 0 0 1-6 6h-72a6 6 0 0 1-6-6z" stroke="#3a414a" stroke-width="3" fill="#979ea8"/><use xlink:href="#k" transform="matrix(1,0,0,1,1105.3671293281584,84.15835140997855) translate(4.777777777777779 25.3625)"/><use xlink:href="#p" transform="matrix(1,0,0,1,1105.3671293281584,84.15835140997855) translate(30.77777777777778 56.5625)"/><path d="M62.27 302.7a6 6 0 0 1 6-6H341.6a6 6 0 0 1 6 6V425.4a6 6 0 0 1-6 6H68.27a6 6 0 0 1-6-6z" stroke="#3a414a" stroke-width="3" fill="#648cd9"/><use xlink:href="#q" transform="matrix(1,0,0,1,76.53637020968883,303.44712219812016) translate(39.66666666666667 66.55)"/><use xlink:href="#r" transform="matrix(1,0,0,1,76.53637020968883,303.44712219812016) translate(104.66666666666667 66.55)"/><path d="M62.27 453.05a6 6 0 0 1 6-6H341.6a6 6 0 0 1 6 6V575.7a6 6 0 0 1-6 6H68.27a6 6 0 0 1-6-6z" stroke="#3a414a" stroke-width="3" fill="#648cd9"/><use xlink:href="#s" transform="matrix(1,0,0,1,76.53637020968897,453.78045553145364) translate(61.44166666666668 66.55)"/><path d="M345.94 295.2a6 6 0 0 1 6-6h92a6 6 0 0 1 6 6v288a6 6 0 0 1-6 6h-92a6 6 0 0 1-6-6z" fill="none"/><path d="M345.94 589.2c5.52 0 10-4.46 10-10v-130c0-5.5 4.47-10 10-10-5.53 0-10-4.46-10-10v-130c0-5.5-4.48-10-10-10" stroke="#3a414a" stroke-width="3" fill="none"/><path d="M371.8 438.88l-5.34-.02h.14l69.36-.27" stroke="#3a414a" stroke-width="3" stroke-linejoin="round" fill="none"/><path d="M371.75 438.88h4.54" stroke="#3a414a" stroke-width="3" fill="none"/><path d="M444.12 438.56l-12.88 7.68-.06-15.27z" stroke="#3a414a" stroke-width="3" fill="#3a414a"/><path d="M1393.8 439.2h74.64" stroke="#3a414a" stroke-width="3" stroke-linejoin="round" fill="none"/><path d="M1393.84 440.7h-1.54v-3h1.54z" stroke="#3a414a" stroke-width=".05" fill="#3a414a"/><path d="M1476.6 439.2l-12.9 7.65v-15.27z" stroke="#3a414a" stroke-width="3" fill="#3a414a"/><path d="M506.6 576.55a6 6 0 0 1 6-6h157.34a6 6 0 0 1 6 6v68a6 6 0 0 1-6 6H512.6a6 6 0 0 1-6-6z" stroke="#3a414a" stroke-width="3" fill="#979ea8"/><use xlink:href="#t" transform="matrix(1,0,0,1,515.0697035430225,574.54712219812) translate(45.480555555555554 41.33125)"/><path d="M588.6 509.38v48.56" stroke="#3a414a" stroke-width="3" stroke-linejoin="round" fill="none"/><path d="M588.6 509.42v-1.54" stroke="#3a414a" stroke-width="3" fill="none"/><path d="M588.6 566.1l-7.63-12.9h15.27z" stroke="#3a414a" stroke-width="3" fill="#3a414a"/><path d="M678.94 610.53l74.43-.9 26.95-1.67 19.22-2 14.94-2.2 12.13-2.3 10.13-2.37 8.6-2.4 7.44-2.42 6.5-2.4 5.73-2.42 5.1-2.4 4.58-2.4 4.13-2.37 3.76-2.4 3.43-2.37 3.12-2.38 2.9-2.4 2.65-2.4 2.47-2.4 2.3-2.45 2.13-2.47 2-2.5 1.85-2.56 1.73-2.6 1.62-2.68 1.5-2.75 1.4-2.83 1.3-2.93 1.2-3.04 1.1-3.16 1-3.3.9-3.46.77-3.65.65-3.87.5-4.1.05-.5" stroke="#3a414a" stroke-width="3" stroke-linejoin="round" fill="none"/><path d="M679 612.03l-1.56.02v-3l1.52-.02z" stroke="#3a414a" stroke-width=".05" fill="#3a414a"/><path d="M919.5 511l6.74 13.4-15.23-1.05z" stroke="#3a414a" stroke-width="3" fill="#3a414a"/><path d="M153.67 212.55a6 6 0 0 1 6-6H276.2a6 6 0 0 1 6 6v62a6 6 0 0 1-6 6H159.67a6 6 0 0 1-6-6z" fill="none"/><use xlink:href="#u" transform="matrix(1,0,0,1,158.6721109504296,211.55212219812032) translate(0 43.16666666666667)"/><path d="M493.5 656.55a6 6 0 0 1 6-6h840.4a6 6 0 0 1 6 6v126a6 6 0 0 1-6 6H499.5a6 6 0 0 1-6-6z" fill="none"/><use xlink:href="#v" transform="matrix(1,0,0,1,498.4935136980797,655.54712219812) translate(0 75.16666666666667)"/><use xlink:href="#w" transform="matrix(1,0,0,1,498.4935136980797,655.54712219812) translate(272.14814814814815 75.16666666666667)"/><use xlink:href="#x" transform="matrix(1,0,0,1,498.4935136980797,655.54712219812) translate(509.03703703703707 75.16666666666667)"/><use xlink:href="#y" transform="matrix(1,0,0,1,498.4935136980797,655.54712219812) translate(580.1481481481482 75.16666666666667)"/><path d="M1481.05 189.56a6 6 0 0 1 6-6h273.34a6 6 0 0 1 6 6v108a6 6 0 0 1-6 6h-273.35a6 6 0 0 1-6-6z" stroke="#3a414a" stroke-width="3" fill="#f8b384"/><use xlink:href="#z" transform="matrix(1,0,0,1,1495.3198120028926,189.5571221981203) translate(2.25555555555556 44.425)"/><use xlink:href="#A" transform="matrix(1,0,0,1,1495.3198120028926,189.5571221981203) translate(72.88888888888889 44.425)"/><use xlink:href="#B" transform="matrix(1,0,0,1,1495.3198120028926,189.5571221981203) translate(101.77777777777777 44.425)"/><use xlink:href="#C" transform="matrix(1,0,0,1,1495.3198120028926,189.5571221981203) translate(218.63333333333333 44.425)"/><use xlink:href="#D" transform="matrix(1,0,0,1,1495.3198120028926,189.5571221981203) translate(26.811111111111117 75.625)"/><use xlink:href="#E" transform="matrix(1,0,0,1,1495.3198120028926,189.5571221981203) translate(71.51666666666667 75.625)"/><path d="M1481.05 372.22a6 6 0 0 1 6-6h273.34a6 6 0 0 1 6 6V494.9a6 6 0 0 1-6 6h-273.35a6 6 0 0 1-6-6z" stroke="#3a414a" stroke-width="3" fill="#f8b384"/><use xlink:href="#F" transform="matrix(1,0,0,1,1495.3198120028926,372.9571221981201) translate(40.750000000000014 36.05)"/><use xlink:href="#G" transform="matrix(1,0,0,1,1495.3198120028926,372.9571221981201) translate(135.79444444444442 36.05)"/><use xlink:href="#H" transform="matrix(1,0,0,1,1495.3198120028926,372.9571221981201) translate(36.92222222222223 67.25)"/><use xlink:href="#I" transform="matrix(1,0,0,1,1495.3198120028926,372.9571221981201) translate(96 67.25)"/><use xlink:href="#J" transform="matrix(1,0,0,1,1495.3198120028926,372.9571221981201) translate(129.07777777777778 67.25)"/><use xlink:href="#K" transform="matrix(1,0,0,1,1495.3198120028926,372.9571221981201) translate(85.88888888888889 98.45)"/><path d="M1481.05 569.56a6 6 0 0 1 6-6h273.34a6 6 0 0 1 6 6v108a6 6 0 0 1-6 6h-273.35a6 6 0 0 1-6-6z" stroke="#3a414a" stroke-width="3" fill="#f8b384"/><use xlink:href="#L" transform="matrix(1,0,0,1,1495.3198120028926,569.5571221981198) translate(0.19722222222222285 27.55)"/><use xlink:href="#M" transform="matrix(1,0,0,1,1495.3198120028926,569.5571221981198) translate(148.6861111111111 27.55)"/><use xlink:href="#N" transform="matrix(1,0,0,1,1495.3198120028926,569.5571221981198) translate(4.422222222222246 58.75)"/><use xlink:href="#O" transform="matrix(1,0,0,1,1495.3198120028926,569.5571221981198) translate(153.05555555555557 58.75)"/><use xlink:href="#P" transform="matrix(1,0,0,1,1495.3198120028926,569.5571221981198) translate(209.24444444444444 58.75)"/><use xlink:href="#Q" transform="matrix(1,0,0,1,1495.3198120028926,569.5571221981198) translate(102.57222222222222 89.95)"/><path d="M1538.7 98.2a6 6 0 0 1 6-6h158.02a6 6 0 0 1 6 6v62.02a6 6 0 0 1-6 6h-158a6 6 0 0 1-6-6z" fill="none"/><use xlink:href="#R" transform="matrix(1,0,0,1,1543.7148120028928,97.21378886478658) translate(0 43.16666666666667)"/><path d="M1193.46 67.64a3.55 3.55 0 0 1 3.55-3.55 3.55 3.55 0 0 1 3.56 3.54v105.04a3.55 3.55 0 0 1-3.55 3.54 3.55 3.55 0 0 1-3.54-3.54z" stroke="#000" stroke-opacity="0" stroke-width="3" fill-opacity="0"/><path d="M663.1 244.55a6 6 0 0 1 6-6h517.76a6 6 0 0 1 6 6v57.33a6 6 0 0 1-6 6H669.12a6 6 0 0 1-6-6z" stroke="#3a414a" stroke-width="3" fill="#979ea8"/><g><use xlink:href="#S" transform="matrix(1,0,0,1,689.6028479251061,242.0137888647864) translate(2.7305555555555827 36.55)"/><use xlink:href="#T" transform="matrix(1,0,0,1,689.6028479251061,242.0137888647864) translate(105.14166666666668 36.55)"/><use xlink:href="#U" transform="matrix(1,0,0,1,689.6028479251061,242.0137888647864) translate(216.1472222222222 36.55)"/><use xlink:href="#V" transform="matrix(1,0,0,1,689.6028479251061,242.0137888647864) translate(253.63055555555553 36.55)"/><use xlink:href="#W" transform="matrix(1,0,0,1,689.6028479251061,242.0137888647864) translate(361.81944444444446 36.55)"/></g><path d="M929.63 370.83v-42.3M929.63 370.8v1.53" stroke="#3a414a" stroke-width="3" fill="none"/><path d="M929.63 320.38l7.64 12.9H922z" stroke="#3a414a" stroke-width="3" fill="#3a414a"/><path d="M1202.06 120.2l4.1.07 5.25.33 4.97.52 4.7.7 4.47.85 4.27 1 4.1 1.14 3.94 1.3 3.8 1.4 3.7 1.56 3.58 1.7 3.5 1.8 3.4 2 3.37 2.12 3.3 2.3 3.24 2.46 3.22 2.67 3.2 2.88 3.17 3.1 3.17 3.38 3.15 3.66 3.16 4 3.18 4.35 3.18 4.8 3.2 5.26 3.2 5.85 3.23 6.5 3.24 7.3 3.25 8.23 3.24 9.36 3.23 10.72 3.18 12.4 3.08 14.55 2.9 17.27 2.64 20.9 2.16 26 1.38 33.86.12 10.8" stroke="#3a414a" stroke-width="3" stroke-linejoin="round" fill="none"/><path d="M1202.13 118.7l-.06 3-1.5-.04v-3z" stroke="#3a414a" stroke-width=".05" fill="#3a414a"/><path d="M1329.3 367.43l-7.76-12.83 15.27-.15z" stroke="#3a414a" stroke-width="3" fill="#3a414a"/><path d="M814.83 47.34a6 6 0 0 1 6-6h214.32a6 6 0 0 1 6 6v29.2a6 6 0 0 1-6 6H820.83a6 6 0 0 1-6-6z" fill="none"/><g><use xlink:href="#X" transform="matrix(1,0,0,1,819.831471991146,46.337122198120056) translate(0 21.2)"/><use xlink:href="#Y" transform="matrix(1,0,0,1,819.831471991146,46.337122198120056) translate(97.93333333333331 21.2)"/><use xlink:href="#Z" transform="matrix(1,0,0,1,819.831471991146,46.337122198120056) translate(125.30555555555553 21.2)"/></g><path d="M820.4 172.77v62.78" stroke="#3a414a" stroke-width="3" fill="none"/><path d="M820.4 164.6l7.64 12.92h-15.27z" stroke="#3a414a" stroke-width="3" fill="#3a414a"/><path d="M821.9 237.05h-3v-1.54h3z" stroke="#3a414a" stroke-width=".05" fill="#3a414a"/><path d="M928 172.77v62.78" stroke="#3a414a" stroke-width="3" fill="none"/><path d="M928 164.6l7.63 12.92h-15.28z" stroke="#3a414a" stroke-width="3" fill="#3a414a"/><path d="M929.5 237.05h-3v-1.54h3z" stroke="#3a414a" stroke-width=".05" fill="#3a414a"/><path d="M1035.58 172.77v62.78" stroke="#3a414a" stroke-width="3" fill="none"/><path d="M1035.58 164.6l7.63 12.92h-15.26z" stroke="#3a414a" stroke-width="3" fill="#3a414a"/><path d="M1037.08 237.05h-3v-1.54h3z" stroke="#3a414a" stroke-width=".05" fill="#3a414a"/><path d="M1143.17 172.77v62.78" stroke="#3a414a" stroke-width="3" fill="none"/><path d="M1143.17 164.6l7.63 12.92h-15.27z" stroke="#3a414a" stroke-width="3" fill="#3a414a"/><path d="M1144.67 237.05h-3v-1.54h3z" stroke="#3a414a" stroke-width=".05" fill="#3a414a"/><path d="M712.8 172.77v62.78" stroke="#3a414a" stroke-width="3" fill="none"/><path d="M712.8 164.6l7.65 12.92h-15.27z" stroke="#3a414a" stroke-width="3" fill="#3a414a"/><path d="M714.3 237.05h-3v-1.54h3z" stroke="#3a414a" stroke-width=".05" fill="#3a414a"/><path d="M1388.85 370.76l2-2.93 2.88-4.64 2.97-5.28 3.13-6.14 3.44-7.48 4.12-10.1 18.2-49.88 2.55-5.54 2.2-4.3 1.97-3.5 1.85-2.97 1.74-2.56 1.7-2.25 1.62-2.02 1.6-1.8 1.56-1.64 1.56-1.5 1.55-1.35 1.55-1.27 1.57-1.16 1.6-1.07 1.6-1 1.65-.93 1.7-.86 1.74-.8 1.83-.73 1.88-.67 2-.62 2.07-.55 2.2-.5 1.62-.28" stroke="#3a414a" stroke-width="3" stroke-linejoin="round" fill="none"/><path d="M1388.87 370.73L1388 372" stroke="#3a414a" stroke-width="3" fill="none"/><path d="M1476.63 243.9l-11.98 9-1.7-15.16z" stroke="#3a414a" stroke-width="3" fill="#3a414a"/><path d="M1390 507.87l2.73 4.67 3.8 7.2 4.42 9.4 7.02 16.77 12.65 31.3 3.5 7.4 2.78 5.3 2.43 4.18 2.2 3.45 2.06 2.93 1.95 2.54 1.88 2.23 1.82 2 1.8 1.8 1.75 1.6 1.75 1.5 1.74 1.34 1.75 1.24 1.77 1.16 1.8 1.05 1.84.98 1.88.9 1.94.83 2 .76 2.1.68 2.18.62 2.3.54 2.43.46.2.03" stroke="#3a414a" stroke-width="3" stroke-linejoin="round" fill="none"/><path d="M1391.33 507.15l-2.6 1.5-.77-1.32.24-.1 1-.6.9-.78.28-.32z" stroke="#3a414a" stroke-width=".05" fill="#3a414a"/><path d="M1476.62 623.24l-13.66 6.17 1.67-15.17z" stroke="#3a414a" stroke-width="3" fill="#3a414a"/><defs><path d="M199 0l-22-63H83L61 0H9l90-248h61L250 0h-51zm-33-102l-36-108c-10 38-24 72-36 108h72" id="aa"/><path d="M25 0v-261h50V0H25" id="ab"/><path d="M25-224v-37h50v37H25zM25 0v-190h50V0H25" id="ac"/><path d="M195-6C206 82 75 100 31 46c-4-6-6-13-8-21l49-6c3 16 16 24 34 25 40 0 42-37 40-79-11 22-30 35-61 35-53 0-70-43-70-97 0-56 18-96 73-97 30 0 46 14 59 34l2-30h47zm-90-29c32 0 41-27 41-63 0-35-9-62-40-62-32 0-39 29-40 63 0 36 9 62 39 62" id="ad"/><path d="M135-194c87-1 58 113 63 194h-50c-7-57 23-157-34-157-59 0-34 97-39 157H25l-1-190h47c2 12-1 28 3 38 12-26 28-41 61-42" id="ae"/><path d="M220-157c-53 9-28 100-34 157h-49v-107c1-27-5-49-29-50C55-147 81-57 75 0H25l-1-190h47c2 12-1 28 3 38 10-53 101-56 108 0 13-22 24-43 59-42 82 1 51 116 57 194h-49v-107c-1-25-5-48-29-50" id="af"/><path d="M185-48c-13 30-37 53-82 52C43 2 14-33 14-96s30-98 90-98c62 0 83 45 84 108H66c0 31 8 55 39 56 18 0 30-7 34-22zm-45-69c5-46-57-63-70-21-2 6-4 13-4 21h74" id="ag"/><path d="M115-3C79 11 28 4 28-45v-112H4v-33h27l15-45h31v45h36v33H77v99c-1 23 16 31 38 25v30" id="ah"/><g id="a"><use transform="matrix(0.07222222222222222,0,0,0.07222222222222222,0,0)" xlink:href="#aa"/><use transform="matrix(0.07222222222222222,0,0,0.07222222222222222,18.705555555555552,0)" xlink:href="#ab"/><use transform="matrix(0.07222222222222222,0,0,0.07222222222222222,25.927777777777774,0)" xlink:href="#ac"/><use transform="matrix(0.07222222222222222,0,0,0.07222222222222222,33.14999999999999,0)" xlink:href="#ad"/><use transform="matrix(0.07222222222222222,0,0,0.07222222222222222,48.966666666666654,0)" xlink:href="#ae"/><use transform="matrix(0.07222222222222222,0,0,0.07222222222222222,64.78333333333332,0)" xlink:href="#af"/><use transform="matrix(0.07222222222222222,0,0,0.07222222222222222,87.89444444444442,0)" xlink:href="#ag"/><use transform="matrix(0.07222222222222222,0,0,0.07222222222222222,102.33888888888886,0)" xlink:href="#ae"/><use transform="matrix(0.07222222222222222,0,0,0.07222222222222222,118.15555555555552,0)" xlink:href="#ah"/></g><path d="M100-194c62-1 85 37 85 99 1 63-27 99-86 99S16-35 15-95c0-66 28-99 85-99zM99-20c44 1 53-31 53-75 0-43-8-75-51-75s-53 32-53 75 10 74 51 75" id="ai"/><path d="M117-194c89-4 53 116 60 194h-32v-121c0-31-8-49-39-48C34-167 62-67 57 0H25l-1-190h30c1 10-1 24 2 32 11-22 29-35 61-36" id="aj"/><g id="b"><use transform="matrix(0.07222222222222222,0,0,0.07222222222222222,0,0)" xlink:href="#ai"/><use transform="matrix(0.07222222222222222,0,0,0.07222222222222222,14.444444444444443,0)" xlink:href="#aj"/></g><path d="M212-179c-10-28-35-45-73-45-59 0-87 40-87 99 0 60 29 101 89 101 43 0 62-24 78-52l27 14C228-24 195 4 139 4 59 4 22-46 18-125c-6-104 99-153 187-111 19 9 31 26 39 46" id="ak"/><path d="M30-248c87 1 191-15 191 75 0 78-77 80-158 76V0H30v-248zm33 125c57 0 124 11 124-50 0-59-68-47-124-48v98" id="al"/><path d="M232-93c-1 65-40 97-104 97C67 4 28-28 28-90v-158h33c8 89-33 224 67 224 102 0 64-133 71-224h33v155" id="am"/><g id="c"><use transform="matrix(0.07222222222222222,0,0,0.07222222222222222,0,0)" xlink:href="#ak"/><use transform="matrix(0.07222222222222222,0,0,0.07222222222222222,18.705555555555552,0)" xlink:href="#al"/><use transform="matrix(0.07222222222222222,0,0,0.07222222222222222,36.038888888888884,0)" xlink:href="#am"/></g><path d="M169-182c-1-43-94-46-97-3 18 66 151 10 154 114 3 95-165 93-204 36-6-8-10-19-12-30l50-8c3 46 112 56 116 5-17-69-150-10-154-114-4-87 153-88 188-35 5 8 8 18 10 28" id="an"/><path d="M135-150c-39-12-60 13-60 57V0H25l-1-190h47c2 13-1 29 3 40 6-28 27-53 61-41v41" id="ao"/><path d="M85 4C-2 5 27-109 22-190h50c7 57-23 150 33 157 60-5 35-97 40-157h50l1 190h-47c-2-12 1-28-3-38-12 25-28 42-61 42" id="ap"/><path d="M190-63c-7 42-38 67-86 67-59 0-84-38-90-98-12-110 154-137 174-36l-49 2c-2-19-15-32-35-32-30 0-35 28-38 64-6 74 65 87 74 30" id="aq"/><g id="d"><use transform="matrix(0.07222222222222222,0,0,0.07222222222222222,0,0)" xlink:href="#an"/><use transform="matrix(0.07222222222222222,0,0,0.07222222222222222,17.333333333333332,0)" xlink:href="#ah"/><use transform="matrix(0.07222222222222222,0,0,0.07222222222222222,25.927777777777774,0)" xlink:href="#ao"/><use transform="matrix(0.07222222222222222,0,0,0.07222222222222222,36.03888888888889,0)" xlink:href="#ap"/><use transform="matrix(0.07222222222222222,0,0,0.07222222222222222,51.85555555555555,0)" xlink:href="#aq"/><use transform="matrix(0.07222222222222222,0,0,0.07222222222222222,66.3,0)" xlink:href="#ah"/><use transform="matrix(0.07222222222222222,0,0,0.07222222222222222,74.89444444444446,0)" xlink:href="#ap"/><use transform="matrix(0.07222222222222222,0,0,0.07222222222222222,90.71111111111111,0)" xlink:href="#ao"/><use transform="matrix(0.07222222222222222,0,0,0.07222222222222222,100.82222222222222,0)" xlink:href="#ag"/></g><path d="M135-194c53 0 70 44 70 98 0 56-19 98-73 100-31 1-45-17-59-34 3 33 2 69 2 105H25l-1-265h48c2 10 0 23 3 31 11-24 29-35 60-35zM114-30c33 0 39-31 40-66 0-38-9-64-40-64-56 0-55 130 0 130" id="ar"/><path d="M88-194c31-1 46 15 58 34l-1-101h50l1 261h-48c-2-10 0-23-3-31C134-8 116 4 84 4 32 4 16-41 15-95c0-56 19-97 73-99zm17 164c33 0 40-30 41-66 1-37-9-64-41-64s-38 30-39 65c0 43 13 65 39 65" id="as"/><path d="M110-194c64 0 96 36 96 99 0 64-35 99-97 99-61 0-95-36-95-99 0-62 34-99 96-99zm-1 164c35 0 45-28 45-65 0-40-10-65-43-65-34 0-45 26-45 65 0 36 10 65 43 65" id="at"/><g id="e"><use transform="matrix(0.07222222222222222,0,0,0.07222222222222222,0,0)" xlink:href="#ar"/><use transform="matrix(0.07222222222222222,0,0,0.07222222222222222,15.816666666666665,0)" xlink:href="#ao"/><use transform="matrix(0.07222222222222222,0,0,0.07222222222222222,25.927777777777774,0)" xlink:href="#ag"/><use transform="matrix(0.07222222222222222,0,0,0.07222222222222222,40.37222222222222,0)" xlink:href="#as"/><use transform="matrix(0.07222222222222222,0,0,0.07222222222222222,56.18888888888888,0)" xlink:href="#ac"/><use transform="matrix(0.07222222222222222,0,0,0.07222222222222222,63.411111111111104,0)" xlink:href="#aq"/><use transform="matrix(0.07222222222222222,0,0,0.07222222222222222,77.85555555555555,0)" xlink:href="#ah"/><use transform="matrix(0.07222222222222222,0,0,0.07222222222222222,86.45,0)" xlink:href="#ac"/><use transform="matrix(0.07222222222222222,0,0,0.07222222222222222,93.67222222222222,0)" xlink:href="#at"/><use transform="matrix(0.07222222222222222,0,0,0.07222222222222222,109.48888888888888,0)" xlink:href="#ae"/></g><path d="M143 4C61 4 22-44 18-125c-5-107 100-154 193-111 17 8 29 25 37 43l-32 9c-13-25-37-40-76-40-61 0-88 39-88 99 0 61 29 100 91 101 35 0 62-11 79-27v-45h-74v-28h105v86C228-13 192 4 143 4" id="au"/><g id="f"><use transform="matrix(0.07222222222222222,0,0,0.07222222222222222,0,0)" xlink:href="#au"/><use transform="matrix(0.07222222222222222,0,0,0.07222222222222222,20.22222222222222,0)" xlink:href="#al"/><use transform="matrix(0.07222222222222222,0,0,0.07222222222222222,37.55555555555556,0)" xlink:href="#am"/></g><path d="M24-248c93 1 206-16 204 79-1 75-69 88-152 82V0H24v-248zm52 121c47 0 100 7 100-41 0-47-54-39-100-39v80" id="av"/><path d="M137-138c1-29-70-34-71-4 15 46 118 7 119 86 1 83-164 76-172 9l43-7c4 19 20 25 44 25 33 8 57-30 24-41C81-84 22-81 20-136c-2-80 154-74 161-7" id="aw"/><g id="g"><use transform="matrix(0.07222222222222222,0,0,0.07222222222222222,0,0)" xlink:href="#av"/><use transform="matrix(0.07222222222222222,0,0,0.07222222222222222,17.333333333333332,0)" xlink:href="#at"/><use transform="matrix(0.07222222222222222,0,0,0.07222222222222222,33.15,0)" xlink:href="#aw"/><use transform="matrix(0.07222222222222222,0,0,0.07222222222222222,47.59444444444444,0)" xlink:href="#ah"/></g><path d="M133-34C117-15 103 5 69 4 32 3 11-16 11-54c-1-60 55-63 116-61 1-26-3-47-28-47-18 1-26 9-28 27l-52-2c7-38 36-58 82-57s74 22 75 68l1 82c-1 14 12 18 25 15v27c-30 8-71 5-69-32zm-48 3c29 0 43-24 42-57-32 0-66-3-65 30 0 17 8 27 23 27" id="ax"/><g id="h"><use transform="matrix(0.07222222222222222,0,0,0.07222222222222222,0,0)" xlink:href="#ah"/><use transform="matrix(0.07222222222222222,0,0,0.07222222222222222,8.594444444444443,0)" xlink:href="#ao"/><use transform="matrix(0.07222222222222222,0,0,0.07222222222222222,18.705555555555552,0)" xlink:href="#ag"/><use transform="matrix(0.07222222222222222,0,0,0.07222222222222222,33.15,0)" xlink:href="#ax"/><use transform="matrix(0.07222222222222222,0,0,0.07222222222222222,47.59444444444444,0)" xlink:href="#ah"/><use transform="matrix(0.07222222222222222,0,0,0.07222222222222222,56.18888888888888,0)" xlink:href="#af"/><use transform="matrix(0.07222222222222222,0,0,0.07222222222222222,79.29999999999998,0)" xlink:href="#ag"/><use transform="matrix(0.07222222222222222,0,0,0.07222222222222222,93.74444444444443,0)" xlink:href="#ae"/><use transform="matrix(0.07222222222222222,0,0,0.07222222222222222,109.56111111111109,0)" xlink:href="#ah"/></g><g id="i"><use transform="matrix(0.07222222222222222,0,0,0.07222222222222222,0,0)" xlink:href="#ai"/><use transform="matrix(0.07222222222222222,0,0,0.07222222222222222,14.444444444444443,0)" xlink:href="#aj"/></g><g id="j"><use transform="matrix(0.07222222222222222,0,0,0.07222222222222222,0,0)" xlink:href="#ak"/><use transform="matrix(0.07222222222222222,0,0,0.07222222222222222,18.705555555555552,0)" xlink:href="#al"/><use transform="matrix(0.07222222222222222,0,0,0.07222222222222222,36.038888888888884,0)" xlink:href="#am"/></g><path fill="#dfe3e8" d="M160-131c35 5 61 23 61 61C221 17 115-2 30 0v-248c76 3 177-17 177 60 0 33-19 50-47 57zm-97-11c50-1 110 9 110-42 0-47-63-36-110-37v79zm0 115c55-2 124 14 124-45 0-56-70-42-124-44v89" id="ay"/><path fill="#dfe3e8" d="M141-36C126-15 110 5 73 4 37 3 15-17 15-53c-1-64 63-63 125-63 3-35-9-54-41-54-24 1-41 7-42 31l-33-3c5-37 33-52 76-52 45 0 72 20 72 64v82c-1 20 7 32 28 27v20c-31 9-61-2-59-35zM48-53c0 20 12 33 32 33 41-3 63-29 60-74-43 2-92-5-92 41" id="az"/><path fill="#dfe3e8" d="M59-47c-2 24 18 29 38 22v24C64 9 27 4 27-40v-127H5v-23h24l9-43h21v43h35v23H59v120" id="aA"/><path fill="#dfe3e8" d="M96-169c-40 0-48 33-48 73s9 75 48 75c24 0 41-14 43-38l32 2c-6 37-31 61-74 61-59 0-76-41-82-99-10-93 101-131 147-64 4 7 5 14 7 22l-32 3c-4-21-16-35-41-35" id="aB"/><path fill="#dfe3e8" d="M106-169C34-169 62-67 57 0H25v-261h32l-1 103c12-21 28-36 61-36 89 0 53 116 60 194h-32v-121c2-32-8-49-39-48" id="aC"/><g id="k"><use transform="matrix(0.07222222222222222,0,0,0.07222222222222222,0,0)" xlink:href="#ay"/><use transform="matrix(0.07222222222222222,0,0,0.07222222222222222,17.333333333333332,0)" xlink:href="#az"/><use transform="matrix(0.07222222222222222,0,0,0.07222222222222222,31.777777777777775,0)" xlink:href="#aA"/><use transform="matrix(0.07222222222222222,0,0,0.07222222222222222,38.99999999999999,0)" xlink:href="#aB"/><use transform="matrix(0.07222222222222222,0,0,0.07222222222222222,52,0)" xlink:href="#aC"/></g><path fill="#dfe3e8" d="M27 0v-27h64v-190l-56 39v-29l58-41h29v221h61V0H27" id="aD"/><use transform="matrix(0.07222222222222222,0,0,0.07222222222222222,0,0)" xlink:href="#aD" id="l"/><path fill="#dfe3e8" d="M101-251c82-7 93 87 43 132L82-64C71-53 59-42 53-27h129V0H18c2-99 128-94 128-182 0-28-16-43-45-43s-46 15-49 41l-32-3c6-41 34-60 81-64" id="aE"/><use transform="matrix(0.07222222222222222,0,0,0.07222222222222222,0,0)" xlink:href="#aE" id="m"/><path fill="#dfe3e8" d="M126-127c33 6 58 20 58 59 0 88-139 92-164 29-3-8-5-16-6-25l32-3c6 27 21 44 54 44 32 0 52-15 52-46 0-38-36-46-79-43v-28c39 1 72-4 72-42 0-27-17-43-46-43-28 0-47 15-49 41l-32-3c6-42 35-63 81-64 48-1 79 21 79 65 0 36-21 52-52 59" id="aF"/><use transform="matrix(0.07222222222222222,0,0,0.07222222222222222,0,0)" xlink:href="#aF" id="n"/><path fill="#dfe3e8" d="M33 0v-38h34V0H33" id="aG"/><g id="o"><use transform="matrix(0.07222222222222222,0,0,0.07222222222222222,0,0)" xlink:href="#aG"/><use transform="matrix(0.07222222222222222,0,0,0.07222222222222222,7.222222222222221,0)" xlink:href="#aG"/><use transform="matrix(0.07222222222222222,0,0,0.07222222222222222,14.444444444444443,0)" xlink:href="#aG"/><use transform="matrix(0.07222222222222222,0,0,0.07222222222222222,21.666666666666664,0)" xlink:href="#aG"/><use transform="matrix(0.07222222222222222,0,0,0.07222222222222222,28.888888888888886,0)" xlink:href="#aG"/><use transform="matrix(0.07222222222222222,0,0,0.07222222222222222,36.11111111111111,0)" xlink:href="#aG"/></g><path fill="#dfe3e8" d="M117-194c89-4 53 116 60 194h-32v-121c0-31-8-49-39-48C34-167 62-67 57 0H25l-1-190h30c1 10-1 24 2 32 11-22 29-35 61-36" id="aH"/><use transform="matrix(0.07222222222222222,0,0,0.07222222222222222,0,0)" xlink:href="#aH" id="p"/><path d="M33 0v-248h34V0H33" id="aI"/><path d="M115-194c55 1 70 41 70 98S169 2 115 4C84 4 66-9 55-30l1 105H24l-1-265h31l2 30c10-21 28-34 59-34zm-8 174c40 0 45-34 45-75s-6-73-45-74c-42 0-51 32-51 76 0 43 10 73 51 73" id="aJ"/><path d="M84 4C-5 8 30-112 23-190h32v120c0 31 7 50 39 49 72-2 45-101 50-169h31l1 190h-30c-1-10 1-25-2-33-11 22-28 36-60 37" id="aK"/><path d="M59-47c-2 24 18 29 38 22v24C64 9 27 4 27-40v-127H5v-23h24l9-43h21v43h35v23H59v120" id="aL"/><g id="q"><use transform="matrix(0.07222222222222222,0,0,0.07222222222222222,0,0)" xlink:href="#aI"/><use transform="matrix(0.07222222222222222,0,0,0.07222222222222222,7.222222222222221,0)" xlink:href="#aj"/><use transform="matrix(0.07222222222222222,0,0,0.07222222222222222,21.666666666666664,0)" xlink:href="#aJ"/><use transform="matrix(0.07222222222222222,0,0,0.07222222222222222,36.11111111111111,0)" xlink:href="#aK"/><use transform="matrix(0.07222222222222222,0,0,0.07222222222222222,50.55555555555555,0)" xlink:href="#aL"/></g><path d="M135-143c-3-34-86-38-87 0 15 53 115 12 119 90S17 21 10-45l28-5c4 36 97 45 98 0-10-56-113-15-118-90-4-57 82-63 122-42 12 7 21 19 24 35" id="aM"/><path d="M100-194c63 0 86 42 84 106H49c0 40 14 67 53 68 26 1 43-12 49-29l28 8c-11 28-37 45-77 45C44 4 14-33 15-96c1-61 26-98 85-98zm52 81c6-60-76-77-97-28-3 7-6 17-6 28h103" id="aN"/><path d="M145-31C134-9 116 4 85 4 32 4 16-35 15-94c0-59 17-99 70-100 32-1 48 14 60 33 0-11-1-24 2-32h30l-1 268h-32zM93-21c41 0 51-33 51-76s-8-73-50-73c-40 0-46 35-46 75s5 74 45 74" id="aO"/><path d="M96-169c-40 0-48 33-48 73s9 75 48 75c24 0 41-14 43-38l32 2c-6 37-31 61-74 61-59 0-76-41-82-99-10-93 101-131 147-64 4 7 5 14 7 22l-32 3c-4-21-16-35-41-35" id="aP"/><g id="r"><use transform="matrix(0.07222222222222222,0,0,0.07222222222222222,0,0)" xlink:href="#aM"/><use transform="matrix(0.07222222222222222,0,0,0.07222222222222222,12.999999999999998,0)" xlink:href="#aN"/><use transform="matrix(0.07222222222222222,0,0,0.07222222222222222,27.444444444444443,0)" xlink:href="#aO"/><use transform="matrix(0.07222222222222222,0,0,0.07222222222222222,41.888888888888886,0)" xlink:href="#aK"/><use transform="matrix(0.07222222222222222,0,0,0.07222222222222222,56.33333333333333,0)" xlink:href="#aN"/><use transform="matrix(0.07222222222222222,0,0,0.07222222222222222,70.77777777777777,0)" xlink:href="#aj"/><use transform="matrix(0.07222222222222222,0,0,0.07222222222222222,85.22222222222221,0)" xlink:href="#aP"/><use transform="matrix(0.07222222222222222,0,0,0.07222222222222222,98.22222222222221,0)" xlink:href="#aN"/></g><path d="M141-36C126-15 110 5 73 4 37 3 15-17 15-53c-1-64 63-63 125-63 3-35-9-54-41-54-24 1-41 7-42 31l-33-3c5-37 33-52 76-52 45 0 72 20 72 64v82c-1 20 7 32 28 27v20c-31 9-61-2-59-35zM48-53c0 20 12 33 32 33 41-3 63-29 60-74-43 2-92-5-92 41" id="aQ"/><path d="M114-163C36-179 61-72 57 0H25l-1-190h30c1 12-1 29 2 39 6-27 23-49 58-41v29" id="aR"/><path d="M210-169c-67 3-38 105-44 169h-31v-121c0-29-5-50-35-48C34-165 62-65 56 0H25l-1-190h30c1 10-1 24 2 32 10-44 99-50 107 0 11-21 27-35 58-36 85-2 47 119 55 194h-31v-121c0-29-5-49-35-48" id="aS"/><g id="s"><use transform="matrix(0.07222222222222222,0,0,0.07222222222222222,0,0)" xlink:href="#al"/><use transform="matrix(0.07222222222222222,0,0,0.07222222222222222,17.333333333333332,0)" xlink:href="#aQ"/><use transform="matrix(0.07222222222222222,0,0,0.07222222222222222,31.777777777777775,0)" xlink:href="#aR"/><use transform="matrix(0.07222222222222222,0,0,0.07222222222222222,40.37222222222222,0)" xlink:href="#aQ"/><use transform="matrix(0.07222222222222222,0,0,0.07222222222222222,54.81666666666666,0)" xlink:href="#aS"/><use transform="matrix(0.07222222222222222,0,0,0.07222222222222222,76.4111111111111,0)" xlink:href="#aN"/><use transform="matrix(0.07222222222222222,0,0,0.07222222222222222,90.85555555555554,0)" xlink:href="#aL"/><use transform="matrix(0.07222222222222222,0,0,0.07222222222222222,98.07777777777775,0)" xlink:href="#aN"/><use transform="matrix(0.07222222222222222,0,0,0.07222222222222222,112.5222222222222,0)" xlink:href="#aR"/><use transform="matrix(0.07222222222222222,0,0,0.07222222222222222,121.11666666666665,0)" xlink:href="#aM"/></g><path fill="#dfe3e8" d="M210-169c-67 3-38 105-44 169h-31v-121c0-29-5-50-35-48C34-165 62-65 56 0H25l-1-190h30c1 10-1 24 2 32 10-44 99-50 107 0 11-21 27-35 58-36 85-2 47 119 55 194h-31v-121c0-29-5-49-35-48" id="aT"/><path fill="#dfe3e8" d="M135-143c-3-34-86-38-87 0 15 53 115 12 119 90S17 21 10-45l28-5c4 36 97 45 98 0-10-56-113-15-118-90-4-57 82-63 122-42 12 7 21 19 24 35" id="aU"/><g id="t"><use transform="matrix(0.07222222222222222,0,0,0.07222222222222222,0,0)" xlink:href="#aT"/><use transform="matrix(0.07222222222222222,0,0,0.07222222222222222,21.59444444444444,0)" xlink:href="#aU"/><use transform="matrix(0.07222222222222222,0,0,0.07222222222222222,34.59444444444444,0)" xlink:href="#az"/><use transform="matrix(0.07222222222222222,0,0,0.07222222222222222,49.038888888888884,0)" xlink:href="#aU"/></g><g id="u"><use transform="matrix(0.14814814814814817,0,0,0.14814814814814817,0,0)" xlink:href="#aI"/><use transform="matrix(0.14814814814814817,0,0,0.14814814814814817,14.814814814814817,0)" xlink:href="#aj"/><use transform="matrix(0.14814814814814817,0,0,0.14814814814814817,44.44444444444445,0)" xlink:href="#aJ"/><use transform="matrix(0.14814814814814817,0,0,0.14814814814814817,74.07407407407408,0)" xlink:href="#aK"/><use transform="matrix(0.14814814814814817,0,0,0.14814814814814817,103.70370370370372,0)" xlink:href="#aL"/></g><path d="M24-231v-30h32v30H24zM24 0v-190h32V0H24" id="aV"/><path d="M177-190C167-65 218 103 67 71c-23-6-38-20-44-43l32-5c15 47 100 32 89-28v-30C133-14 115 1 83 1 29 1 15-40 15-95c0-56 16-97 71-98 29-1 48 16 59 35 1-10 0-23 2-32h30zM94-22c36 0 50-32 50-73 0-42-14-75-50-75-39 0-46 34-46 75s6 73 46 73" id="aW"/><g id="v"><use transform="matrix(0.14814814814814817,0,0,0.14814814814814817,0,0)" xlink:href="#ak"/><use transform="matrix(0.14814814814814817,0,0,0.14814814814814817,38.370370370370374,0)" xlink:href="#ai"/><use transform="matrix(0.14814814814814817,0,0,0.14814814814814817,68,0)" xlink:href="#aS"/><use transform="matrix(0.14814814814814817,0,0,0.14814814814814817,112.2962962962963,0)" xlink:href="#aJ"/><use transform="matrix(0.14814814814814817,0,0,0.14814814814814817,141.92592592592592,0)" xlink:href="#aK"/><use transform="matrix(0.14814814814814817,0,0,0.14814814814814817,171.55555555555554,0)" xlink:href="#aL"/><use transform="matrix(0.14814814814814817,0,0,0.14814814814814817,186.37037037037035,0)" xlink:href="#aV"/><use transform="matrix(0.14814814814814817,0,0,0.14814814814814817,198.07407407407402,0)" xlink:href="#aj"/><use transform="matrix(0.14814814814814817,0,0,0.14814814814814817,227.7037037037037,0)" xlink:href="#aW"/></g><path d="M85-194c31 0 48 13 60 33l-1-100h32l1 261h-30c-2-10 0-23-3-31C134-8 116 4 85 4 32 4 16-35 15-94c0-66 23-100 70-100zm9 24c-40 0-46 34-46 75 0 40 6 74 45 74 42 0 51-32 51-76 0-42-9-74-50-73" id="aX"/><g id="w"><use transform="matrix(0.14814814814814817,0,0,0.14814814814814817,0,0)" xlink:href="#aS"/><use transform="matrix(0.14814814814814817,0,0,0.14814814814814817,44.296296296296305,0)" xlink:href="#aQ"/><use transform="matrix(0.14814814814814817,0,0,0.14814814814814817,73.92592592592594,0)" xlink:href="#aj"/><use transform="matrix(0.14814814814814817,0,0,0.14814814814814817,103.55555555555557,0)" xlink:href="#aQ"/><use transform="matrix(0.14814814814814817,0,0,0.14814814814814817,133.18518518518522,0)" xlink:href="#aW"/><use transform="matrix(0.14814814814814817,0,0,0.14814814814814817,162.81481481481484,0)" xlink:href="#aN"/><use transform="matrix(0.14814814814814817,0,0,0.14814814814814817,192.44444444444446,0)" xlink:href="#aX"/></g><path d="M115-194c53 0 69 39 70 98 0 66-23 100-70 100C84 3 66-7 56-30L54 0H23l1-261h32v101c10-23 28-34 59-34zm-8 174c40 0 45-34 45-75 0-40-5-75-45-74-42 0-51 32-51 76 0 43 10 73 51 73" id="aY"/><path d="M179-190L93 31C79 59 56 82 12 73V49c39 6 53-20 64-50L1-190h34L92-34l54-156h33" id="aZ"/><g id="x"><use transform="matrix(0.14814814814814817,0,0,0.14814814814814817,0,0)" xlink:href="#aY"/><use transform="matrix(0.14814814814814817,0,0,0.14814814814814817,29.629629629629633,0)" xlink:href="#aZ"/></g><path d="M106-169C34-169 62-67 57 0H25v-261h32l-1 103c12-21 28-36 61-36 89 0 53 116 60 194h-32v-121c2-32-8-49-39-48" id="ba"/><path d="M24 0v-261h32V0H24" id="bb"/><g id="y"><use transform="matrix(0.14814814814814817,0,0,0.14814814814814817,0,0)" xlink:href="#aM"/><use transform="matrix(0.14814814814814817,0,0,0.14814814814814817,26.66666666666667,0)" xlink:href="#aP"/><use transform="matrix(0.14814814814814817,0,0,0.14814814814814817,53.33333333333334,0)" xlink:href="#ba"/><use transform="matrix(0.14814814814814817,0,0,0.14814814814814817,82.96296296296298,0)" xlink:href="#aN"/><use transform="matrix(0.14814814814814817,0,0,0.14814814814814817,112.59259259259261,0)" xlink:href="#aX"/><use transform="matrix(0.14814814814814817,0,0,0.14814814814814817,142.22222222222223,0)" xlink:href="#aK"/><use transform="matrix(0.14814814814814817,0,0,0.14814814814814817,171.85185185185185,0)" xlink:href="#bb"/><use transform="matrix(0.14814814814814817,0,0,0.14814814814814817,183.55555555555554,0)" xlink:href="#aN"/><use transform="matrix(0.14814814814814817,0,0,0.14814814814814817,213.18518518518513,0)" xlink:href="#aR"/></g><g id="z"><use transform="matrix(0.07222222222222222,0,0,0.07222222222222222,0,0)" xlink:href="#av"/><use transform="matrix(0.07222222222222222,0,0,0.07222222222222222,17.333333333333332,0)" xlink:href="#ab"/><use transform="matrix(0.07222222222222222,0,0,0.07222222222222222,24.555555555555554,0)" xlink:href="#at"/><use transform="matrix(0.07222222222222222,0,0,0.07222222222222222,40.37222222222222,0)" xlink:href="#ah"/><use transform="matrix(0.07222222222222222,0,0,0.07222222222222222,48.96666666666666,0)" xlink:href="#aw"/></g><g id="A"><use transform="matrix(0.07222222222222222,0,0,0.07222222222222222,0,0)" xlink:href="#aL"/><use transform="matrix(0.07222222222222222,0,0,0.07222222222222222,7.222222222222221,0)" xlink:href="#ai"/></g><g id="B"><use transform="matrix(0.07222222222222222,0,0,0.07222222222222222,0,0)" xlink:href="#aR"/><use transform="matrix(0.07222222222222222,0,0,0.07222222222222222,8.594444444444443,0)" xlink:href="#aN"/><use transform="matrix(0.07222222222222222,0,0,0.07222222222222222,23.038888888888884,0)" xlink:href="#aJ"/><use transform="matrix(0.07222222222222222,0,0,0.07222222222222222,37.48333333333333,0)" xlink:href="#aR"/><use transform="matrix(0.07222222222222222,0,0,0.07222222222222222,46.07777777777777,0)" xlink:href="#aN"/><use transform="matrix(0.07222222222222222,0,0,0.07222222222222222,60.52222222222221,0)" xlink:href="#aM"/><use transform="matrix(0.07222222222222222,0,0,0.07222222222222222,73.52222222222221,0)" xlink:href="#aN"/><use transform="matrix(0.07222222222222222,0,0,0.07222222222222222,87.96666666666665,0)" xlink:href="#aj"/><use transform="matrix(0.07222222222222222,0,0,0.07222222222222222,102.4111111111111,0)" xlink:href="#aL"/></g><g id="C"><use transform="matrix(0.07222222222222222,0,0,0.07222222222222222,0,0)" xlink:href="#aL"/><use transform="matrix(0.07222222222222222,0,0,0.07222222222222222,7.222222222222221,0)" xlink:href="#ba"/><use transform="matrix(0.07222222222222222,0,0,0.07222222222222222,21.666666666666664,0)" xlink:href="#aN"/></g><g id="D"><use transform="matrix(0.07222222222222222,0,0,0.07222222222222222,0,0)" xlink:href="#aR"/><use transform="matrix(0.07222222222222222,0,0,0.07222222222222222,8.594444444444443,0)" xlink:href="#aK"/><use transform="matrix(0.07222222222222222,0,0,0.07222222222222222,23.038888888888884,0)" xlink:href="#aj"/></g><path d="M101-234c-31-9-42 10-38 44h38v23H63V0H32v-167H5v-23h27c-7-52 17-82 69-68v24" id="bc"/><g id="E"><use transform="matrix(0.07222222222222222,0,0,0.07222222222222222,0,0)" xlink:href="#aJ"/><use transform="matrix(0.07222222222222222,0,0,0.07222222222222222,14.444444444444443,0)" xlink:href="#aN"/><use transform="matrix(0.07222222222222222,0,0,0.07222222222222222,28.888888888888886,0)" xlink:href="#aR"/><use transform="matrix(0.07222222222222222,0,0,0.07222222222222222,37.48333333333333,0)" xlink:href="#bc"/><use transform="matrix(0.07222222222222222,0,0,0.07222222222222222,44.70555555555555,0)" xlink:href="#ai"/><use transform="matrix(0.07222222222222222,0,0,0.07222222222222222,59.14999999999999,0)" xlink:href="#aR"/><use transform="matrix(0.07222222222222222,0,0,0.07222222222222222,67.74444444444444,0)" xlink:href="#aS"/><use transform="matrix(0.07222222222222222,0,0,0.07222222222222222,89.33888888888887,0)" xlink:href="#aQ"/><use transform="matrix(0.07222222222222222,0,0,0.07222222222222222,103.78333333333332,0)" xlink:href="#aj"/><use transform="matrix(0.07222222222222222,0,0,0.07222222222222222,118.22777777777776,0)" xlink:href="#aP"/><use transform="matrix(0.07222222222222222,0,0,0.07222222222222222,131.22777777777776,0)" xlink:href="#aN"/><use transform="matrix(0.07222222222222222,0,0,0.07222222222222222,145.67222222222222,0)" xlink:href="#aM"/></g><path d="M238-95c0 69-44 99-111 99C63 4 22-25 22-93v-155h51v151c-1 38 19 59 55 60 90 1 49-130 58-211h52v153" id="bd"/><path d="M121-226c-27-7-43 5-38 36h38v33H83V0H34v-157H6v-33h28c-9-59 32-81 87-68v32" id="be"/><g id="F"><use transform="matrix(0.07222222222222222,0,0,0.07222222222222222,0,0)" xlink:href="#bd"/><use transform="matrix(0.07222222222222222,0,0,0.07222222222222222,18.705555555555552,0)" xlink:href="#ae"/><use transform="matrix(0.07222222222222222,0,0,0.07222222222222222,34.52222222222222,0)" xlink:href="#ac"/><use transform="matrix(0.07222222222222222,0,0,0.07222222222222222,41.74444444444444,0)" xlink:href="#be"/><use transform="matrix(0.07222222222222222,0,0,0.07222222222222222,50.33888888888888,0)" xlink:href="#ac"/><use transform="matrix(0.07222222222222222,0,0,0.07222222222222222,57.5611111111111,0)" xlink:href="#ag"/><use transform="matrix(0.07222222222222222,0,0,0.07222222222222222,72.00555555555555,0)" xlink:href="#as"/></g><g id="G"><use transform="matrix(0.07222222222222222,0,0,0.07222222222222222,0,0)" xlink:href="#at"/><use transform="matrix(0.07222222222222222,0,0,0.07222222222222222,15.816666666666665,0)" xlink:href="#ap"/><use transform="matrix(0.07222222222222222,0,0,0.07222222222222222,31.63333333333333,0)" xlink:href="#ah"/><use transform="matrix(0.07222222222222222,0,0,0.07222222222222222,40.227777777777774,0)" xlink:href="#ar"/><use transform="matrix(0.07222222222222222,0,0,0.07222222222222222,56.04444444444444,0)" xlink:href="#ap"/><use transform="matrix(0.07222222222222222,0,0,0.07222222222222222,71.8611111111111,0)" xlink:href="#ah"/></g><g id="H"><use transform="matrix(0.07222222222222222,0,0,0.07222222222222222,0,0)" xlink:href="#bc"/><use transform="matrix(0.07222222222222222,0,0,0.07222222222222222,7.222222222222221,0)" xlink:href="#aR"/><use transform="matrix(0.07222222222222222,0,0,0.07222222222222222,15.816666666666665,0)" xlink:href="#ai"/><use transform="matrix(0.07222222222222222,0,0,0.07222222222222222,30.261111111111106,0)" xlink:href="#aS"/></g><g id="I"><use transform="matrix(0.07222222222222222,0,0,0.07222222222222222,0,0)" xlink:href="#aQ"/><use transform="matrix(0.07222222222222222,0,0,0.07222222222222222,14.444444444444443,0)" xlink:href="#bb"/><use transform="matrix(0.07222222222222222,0,0,0.07222222222222222,20.15,0)" xlink:href="#bb"/></g><g id="J"><use transform="matrix(0.07222222222222222,0,0,0.07222222222222222,0,0)" xlink:href="#aY"/><use transform="matrix(0.07222222222222222,0,0,0.07222222222222222,14.444444444444443,0)" xlink:href="#aQ"/><use transform="matrix(0.07222222222222222,0,0,0.07222222222222222,28.888888888888886,0)" xlink:href="#aL"/><use transform="matrix(0.07222222222222222,0,0,0.07222222222222222,36.11111111111111,0)" xlink:href="#aP"/><use transform="matrix(0.07222222222222222,0,0,0.07222222222222222,49.11111111111111,0)" xlink:href="#ba"/><use transform="matrix(0.07222222222222222,0,0,0.07222222222222222,63.55555555555555,0)" xlink:href="#aN"/><use transform="matrix(0.07222222222222222,0,0,0.07222222222222222,77.99999999999999,0)" xlink:href="#aM"/></g><g id="K"><use transform="matrix(0.07222222222222222,0,0,0.07222222222222222,0,0)" xlink:href="#ai"/><use transform="matrix(0.07222222222222222,0,0,0.07222222222222222,14.444444444444443,0)" xlink:href="#aK"/><use transform="matrix(0.07222222222222222,0,0,0.07222222222222222,28.888888888888886,0)" xlink:href="#aL"/><use transform="matrix(0.07222222222222222,0,0,0.07222222222222222,36.11111111111111,0)" xlink:href="#aJ"/><use transform="matrix(0.07222222222222222,0,0,0.07222222222222222,50.55555555555555,0)" xlink:href="#aK"/><use transform="matrix(0.07222222222222222,0,0,0.07222222222222222,65,0)" xlink:href="#aL"/><use transform="matrix(0.07222222222222222,0,0,0.07222222222222222,72.22222222222223,0)" xlink:href="#aM"/></g><g id="L"><use transform="matrix(0.07222222222222222,0,0,0.07222222222222222,0,0)" xlink:href="#av"/><use transform="matrix(0.07222222222222222,0,0,0.07222222222222222,17.333333333333332,0)" xlink:href="#ao"/><use transform="matrix(0.07222222222222222,0,0,0.07222222222222222,27.444444444444443,0)" xlink:href="#ag"/><use transform="matrix(0.07222222222222222,0,0,0.07222222222222222,41.888888888888886,0)" xlink:href="#as"/><use transform="matrix(0.07222222222222222,0,0,0.07222222222222222,57.70555555555555,0)" xlink:href="#ac"/><use transform="matrix(0.07222222222222222,0,0,0.07222222222222222,64.92777777777778,0)" xlink:href="#aq"/><use transform="matrix(0.07222222222222222,0,0,0.07222222222222222,79.37222222222222,0)" xlink:href="#ah"/><use transform="matrix(0.07222222222222222,0,0,0.07222222222222222,87.96666666666667,0)" xlink:href="#ac"/><use transform="matrix(0.07222222222222222,0,0,0.07222222222222222,95.1888888888889,0)" xlink:href="#at"/><use transform="matrix(0.07222222222222222,0,0,0.07222222222222222,111.00555555555556,0)" xlink:href="#ae"/><use transform="matrix(0.07222222222222222,0,0,0.07222222222222222,126.82222222222222,0)" xlink:href="#aw"/></g><path d="M147 0L96-86 75-71V0H25v-261h50v150l67-79h53l-66 74L201 0h-54" id="bf"/><g id="M"><use transform="matrix(0.07222222222222222,0,0,0.07222222222222222,0,0)" xlink:href="#ao"/><use transform="matrix(0.07222222222222222,0,0,0.07222222222222222,10.11111111111111,0)" xlink:href="#ax"/><use transform="matrix(0.07222222222222222,0,0,0.07222222222222222,24.555555555555554,0)" xlink:href="#ae"/><use transform="matrix(0.07222222222222222,0,0,0.07222222222222222,40.37222222222222,0)" xlink:href="#bf"/><use transform="matrix(0.07222222222222222,0,0,0.07222222222222222,54.81666666666666,0)" xlink:href="#ac"/><use transform="matrix(0.07222222222222222,0,0,0.07222222222222222,62.038888888888884,0)" xlink:href="#ae"/><use transform="matrix(0.07222222222222222,0,0,0.07222222222222222,77.85555555555555,0)" xlink:href="#ad"/><use transform="matrix(0.07222222222222222,0,0,0.07222222222222222,93.67222222222222,0)" xlink:href="#aw"/></g><path d="M87 75C49 33 22-17 22-94c0-76 28-126 65-167h31c-38 41-64 92-64 168S80 34 118 75H87" id="bg"/><path d="M68-38c1 34 0 65-14 84H32c9-13 17-26 17-46H33v-38h35" id="bh"/><g id="N"><use transform="matrix(0.07222222222222222,0,0,0.07222222222222222,0,0)" xlink:href="#bg"/><use transform="matrix(0.07222222222222222,0,0,0.07222222222222222,8.594444444444443,0)" xlink:href="#aP"/><use transform="matrix(0.07222222222222222,0,0,0.07222222222222222,21.59444444444444,0)" xlink:href="#ai"/><use transform="matrix(0.07222222222222222,0,0,0.07222222222222222,36.038888888888884,0)" xlink:href="#aj"/><use transform="matrix(0.07222222222222222,0,0,0.07222222222222222,50.48333333333333,0)" xlink:href="#bc"/><use transform="matrix(0.07222222222222222,0,0,0.07222222222222222,57.70555555555555,0)" xlink:href="#aV"/><use transform="matrix(0.07222222222222222,0,0,0.07222222222222222,63.411111111111104,0)" xlink:href="#aX"/><use transform="matrix(0.07222222222222222,0,0,0.07222222222222222,77.85555555555555,0)" xlink:href="#aN"/><use transform="matrix(0.07222222222222222,0,0,0.07222222222222222,92.3,0)" xlink:href="#aj"/><use transform="matrix(0.07222222222222222,0,0,0.07222222222222222,106.74444444444444,0)" xlink:href="#aP"/><use transform="matrix(0.07222222222222222,0,0,0.07222222222222222,119.74444444444444,0)" xlink:href="#aN"/><use transform="matrix(0.07222222222222222,0,0,0.07222222222222222,134.18888888888887,0)" xlink:href="#bh"/></g><g id="O"><use transform="matrix(0.07222222222222222,0,0,0.07222222222222222,0,0)" xlink:href="#aV"/><use transform="matrix(0.07222222222222222,0,0,0.07222222222222222,5.705555555555555,0)" xlink:href="#aJ"/><use transform="matrix(0.07222222222222222,0,0,0.07222222222222222,20.15,0)" xlink:href="#aL"/><use transform="matrix(0.07222222222222222,0,0,0.07222222222222222,27.37222222222222,0)" xlink:href="#aS"/></g><g id="P"><use transform="matrix(0.07222222222222222,0,0,0.07222222222222222,0,0)" xlink:href="#aQ"/><use transform="matrix(0.07222222222222222,0,0,0.07222222222222222,14.444444444444443,0)" xlink:href="#aj"/><use transform="matrix(0.07222222222222222,0,0,0.07222222222222222,28.888888888888886,0)" xlink:href="#aX"/></g><path d="M33-261c38 41 65 92 65 168S71 34 33 75H2C39 34 66-17 66-93S39-220 2-261h31" id="bi"/><g id="Q"><use transform="matrix(0.07222222222222222,0,0,0.07222222222222222,0,0)" xlink:href="#aJ"/><use transform="matrix(0.07222222222222222,0,0,0.07222222222222222,14.444444444444443,0)" xlink:href="#aL"/><use transform="matrix(0.07222222222222222,0,0,0.07222222222222222,21.666666666666664,0)" xlink:href="#aS"/><use transform="matrix(0.07222222222222222,0,0,0.07222222222222222,43.261111111111106,0)" xlink:href="#bi"/></g><path d="M140-251c81 0 123 46 123 126C263-46 219 4 140 4 59 4 17-45 17-125s42-126 123-126zm0 227c63 0 89-41 89-101s-29-99-89-99c-61 0-89 39-89 99S79-25 140-24" id="bj"/><g id="R"><use transform="matrix(0.14814814814814817,0,0,0.14814814814814817,0,0)" xlink:href="#bj"/><use transform="matrix(0.14814814814814817,0,0,0.14814814814814817,41.48148148148149,0)" xlink:href="#aK"/><use transform="matrix(0.14814814814814817,0,0,0.14814814814814817,71.11111111111111,0)" xlink:href="#aL"/><use transform="matrix(0.14814814814814817,0,0,0.14814814814814817,85.92592592592592,0)" xlink:href="#aJ"/><use transform="matrix(0.14814814814814817,0,0,0.14814814814814817,115.55555555555556,0)" xlink:href="#aK"/><use transform="matrix(0.14814814814814817,0,0,0.14814814814814817,145.1851851851852,0)" xlink:href="#aL"/></g><path fill="#dfe3e8" d="M240 0l2-218c-23 76-54 145-80 218h-23L58-218 59 0H30v-248h44l77 211c21-75 51-140 76-211h43V0h-30" id="bk"/><path fill="#dfe3e8" d="M24-231v-30h32v30H24zM24 0v-190h32V0H24" id="bl"/><path fill="#dfe3e8" d="M108 0H70L1-190h34L89-25l56-165h34" id="bm"/><path fill="#dfe3e8" d="M100-194c63 0 86 42 84 106H49c0 40 14 67 53 68 26 1 43-12 49-29l28 8c-11 28-37 45-77 45C44 4 14-33 15-96c1-61 26-98 85-98zm52 81c6-60-76-77-97-28-3 7-6 17-6 28h103" id="bn"/><g id="S"><use transform="matrix(0.07222222222222222,0,0,0.07222222222222222,0,0)" xlink:href="#bk"/><use transform="matrix(0.07222222222222222,0,0,0.07222222222222222,21.59444444444444,0)" xlink:href="#az"/><use transform="matrix(0.07222222222222222,0,0,0.07222222222222222,36.038888888888884,0)" xlink:href="#aU"/><use transform="matrix(0.07222222222222222,0,0,0.07222222222222222,49.038888888888884,0)" xlink:href="#aU"/><use transform="matrix(0.07222222222222222,0,0,0.07222222222222222,62.038888888888884,0)" xlink:href="#bl"/><use transform="matrix(0.07222222222222222,0,0,0.07222222222222222,67.74444444444444,0)" xlink:href="#bm"/><use transform="matrix(0.07222222222222222,0,0,0.07222222222222222,80.74444444444444,0)" xlink:href="#bn"/></g><path fill="#dfe3e8" d="M115-194c55 1 70 41 70 98S169 2 115 4C84 4 66-9 55-30l1 105H24l-1-265h31l2 30c10-21 28-34 59-34zm-8 174c40 0 45-34 45-75s-6-73-45-74c-42 0-51 32-51 76 0 43 10 73 51 73" id="bo"/><path fill="#dfe3e8" d="M24 0v-261h32V0H24" id="bp"/><path fill="#dfe3e8" d="M177-190C167-65 218 103 67 71c-23-6-38-20-44-43l32-5c15 47 100 32 89-28v-30C133-14 115 1 83 1 29 1 15-40 15-95c0-56 16-97 71-98 29-1 48 16 59 35 1-10 0-23 2-32h30zM94-22c36 0 50-32 50-73 0-42-14-75-50-75-39 0-46 34-46 75s6 73 46 73" id="bq"/><g id="T"><use transform="matrix(0.07222222222222222,0,0,0.07222222222222222,0,0)" xlink:href="#aU"/><use transform="matrix(0.07222222222222222,0,0,0.07222222222222222,12.999999999999998,0)" xlink:href="#az"/><use transform="matrix(0.07222222222222222,0,0,0.07222222222222222,27.444444444444443,0)" xlink:href="#aT"/><use transform="matrix(0.07222222222222222,0,0,0.07222222222222222,49.038888888888884,0)" xlink:href="#bo"/><use transform="matrix(0.07222222222222222,0,0,0.07222222222222222,63.48333333333333,0)" xlink:href="#bp"/><use transform="matrix(0.07222222222222222,0,0,0.07222222222222222,69.18888888888888,0)" xlink:href="#bl"/><use transform="matrix(0.07222222222222222,0,0,0.07222222222222222,74.89444444444443,0)" xlink:href="#aH"/><use transform="matrix(0.07222222222222222,0,0,0.07222222222222222,89.33888888888887,0)" xlink:href="#bq"/></g><path fill="#dfe3e8" d="M101-234c-31-9-42 10-38 44h38v23H63V0H32v-167H5v-23h27c-7-52 17-82 69-68v24" id="br"/><path fill="#dfe3e8" d="M100-194c62-1 85 37 85 99 1 63-27 99-86 99S16-35 15-95c0-66 28-99 85-99zM99-20c44 1 53-31 53-75 0-43-8-75-51-75s-53 32-53 75 10 74 51 75" id="bs"/><path fill="#dfe3e8" d="M114-163C36-179 61-72 57 0H25l-1-190h30c1 12-1 29 2 39 6-27 23-49 58-41v29" id="bt"/><g id="U"><use transform="matrix(0.07222222222222222,0,0,0.07222222222222222,0,0)" xlink:href="#br"/><use transform="matrix(0.07222222222222222,0,0,0.07222222222222222,7.222222222222221,0)" xlink:href="#bs"/><use transform="matrix(0.07222222222222222,0,0,0.07222222222222222,21.666666666666664,0)" xlink:href="#bt"/></g><path fill="#dfe3e8" d="M84 4C-5 8 30-112 23-190h32v120c0 31 7 50 39 49 72-2 45-101 50-169h31l1 190h-30c-1-10 1-25-2-33-11 22-28 36-60 37" id="bu"/><g id="V"><use transform="matrix(0.07222222222222222,0,0,0.07222222222222222,0,0)" xlink:href="#aU"/><use transform="matrix(0.07222222222222222,0,0,0.07222222222222222,12.999999999999998,0)" xlink:href="#aA"/><use transform="matrix(0.07222222222222222,0,0,0.07222222222222222,20.22222222222222,0)" xlink:href="#bt"/><use transform="matrix(0.07222222222222222,0,0,0.07222222222222222,28.816666666666663,0)" xlink:href="#bu"/><use transform="matrix(0.07222222222222222,0,0,0.07222222222222222,43.261111111111106,0)" xlink:href="#aB"/><use transform="matrix(0.07222222222222222,0,0,0.07222222222222222,56.261111111111106,0)" xlink:href="#aA"/><use transform="matrix(0.07222222222222222,0,0,0.07222222222222222,63.48333333333333,0)" xlink:href="#bu"/><use transform="matrix(0.07222222222222222,0,0,0.07222222222222222,77.92777777777778,0)" xlink:href="#bt"/><use transform="matrix(0.07222222222222222,0,0,0.07222222222222222,86.52222222222223,0)" xlink:href="#bn"/></g><path fill="#dfe3e8" d="M85-194c31 0 48 13 60 33l-1-100h32l1 261h-30c-2-10 0-23-3-31C134-8 116 4 85 4 32 4 16-35 15-94c0-66 23-100 70-100zm9 24c-40 0-46 34-46 75 0 40 6 74 45 74 42 0 51-32 51-76 0-42-9-74-50-73" id="bv"/><g id="W"><use transform="matrix(0.07222222222222222,0,0,0.07222222222222222,0,0)" xlink:href="#bo"/><use transform="matrix(0.07222222222222222,0,0,0.07222222222222222,14.444444444444443,0)" xlink:href="#bt"/><use transform="matrix(0.07222222222222222,0,0,0.07222222222222222,23.038888888888884,0)" xlink:href="#bn"/><use transform="matrix(0.07222222222222222,0,0,0.07222222222222222,37.48333333333333,0)" xlink:href="#bv"/><use transform="matrix(0.07222222222222222,0,0,0.07222222222222222,51.92777777777777,0)" xlink:href="#bl"/><use transform="matrix(0.07222222222222222,0,0,0.07222222222222222,57.633333333333326,0)" xlink:href="#aB"/><use transform="matrix(0.07222222222222222,0,0,0.07222222222222222,70.63333333333333,0)" xlink:href="#aA"/><use transform="matrix(0.07222222222222222,0,0,0.07222222222222222,77.85555555555555,0)" xlink:href="#bl"/><use transform="matrix(0.07222222222222222,0,0,0.07222222222222222,83.5611111111111,0)" xlink:href="#bs"/><use transform="matrix(0.07222222222222222,0,0,0.07222222222222222,98.00555555555555,0)" xlink:href="#aH"/></g><path d="M30-248c118-7 216 8 213 122C240-48 200 0 122 0H30v-248zM63-27c89 8 146-16 146-99s-60-101-146-95v194" id="bw"/><path d="M108 0H70L1-190h34L89-25l56-165h34" id="bx"/><g id="X"><use transform="matrix(0.07222222222222222,0,0,0.07222222222222222,0,0)" xlink:href="#bw"/><use transform="matrix(0.07222222222222222,0,0,0.07222222222222222,18.705555555555552,0)" xlink:href="#aV"/><use transform="matrix(0.07222222222222222,0,0,0.07222222222222222,24.411111111111108,0)" xlink:href="#bx"/><use transform="matrix(0.07222222222222222,0,0,0.07222222222222222,37.411111111111104,0)" xlink:href="#aV"/><use transform="matrix(0.07222222222222222,0,0,0.07222222222222222,43.11666666666666,0)" xlink:href="#aM"/><use transform="matrix(0.07222222222222222,0,0,0.07222222222222222,56.11666666666666,0)" xlink:href="#aV"/><use transform="matrix(0.07222222222222222,0,0,0.07222222222222222,61.822222222222216,0)" xlink:href="#ai"/><use transform="matrix(0.07222222222222222,0,0,0.07222222222222222,76.26666666666667,0)" xlink:href="#aj"/></g><g id="Y"><use transform="matrix(0.07222222222222222,0,0,0.07222222222222222,0,0)" xlink:href="#aV"/><use transform="matrix(0.07222222222222222,0,0,0.07222222222222222,5.705555555555555,0)" xlink:href="#aj"/></g><g id="Z"><use transform="matrix(0.07222222222222222,0,0,0.07222222222222222,0,0)" xlink:href="#aY"/><use transform="matrix(0.07222222222222222,0,0,0.07222222222222222,14.444444444444443,0)" xlink:href="#aQ"/><use transform="matrix(0.07222222222222222,0,0,0.07222222222222222,28.888888888888886,0)" xlink:href="#aL"/><use transform="matrix(0.07222222222222222,0,0,0.07222222222222222,36.11111111111111,0)" xlink:href="#aP"/><use transform="matrix(0.07222222222222222,0,0,0.07222222222222222,49.11111111111111,0)" xlink:href="#ba"/><use transform="matrix(0.07222222222222222,0,0,0.07222222222222222,63.55555555555555,0)" xlink:href="#aN"/><use transform="matrix(0.07222222222222222,0,0,0.07222222222222222,77.99999999999999,0)" xlink:href="#aM"/></g></defs></g></svg>